<svg version="1.1" id="Layer_1" xmlns="http://www.w3.org/2000/svg" xmlns:xlink="http://www.w3.org/1999/xlink" x="0px" y="0px"
	 width="100%" viewBox="0 0 500 500" enable-background="new 0 0 500 500" xml:space="preserve">
<path fill="#FDFEFE" opacity="1.000000" stroke="none" 
	d="
M1.000000,178.000000 
	C1.000000,118.681358 1.000000,59.862713 1.000000,1.022035 
	C167.610352,1.022035 334.220734,1.022035 500.915527,1.022035 
	C500.915527,167.568710 500.915527,334.137482 500.915527,500.853119 
	C334.333435,500.853119 167.666733,500.853119 1.000000,500.853119 
	C1.000000,393.445831 1.000000,285.972900 1.000000,178.000000 
M420.638306,457.759583 
	C423.515900,453.908875 426.393494,450.058136 429.802216,445.795105 
	C434.048706,438.154388 438.919067,430.786011 442.399811,422.811066 
	C448.042450,409.883026 452.097107,396.326447 452.168518,382.057800 
	C452.236450,368.485504 452.924561,354.704010 450.875641,341.393890 
	C448.883911,328.455261 444.391479,315.769653 439.879608,303.379913 
	C431.888306,281.435486 418.538727,262.711914 402.374359,246.044724 
	C385.424957,228.568100 365.751556,214.792648 342.721832,206.734634 
	C331.239563,202.717026 319.029449,200.666809 307.030060,198.336670 
	C304.672333,197.878830 301.770905,200.221100 299.120209,201.271957 
	C299.278534,201.764008 299.436890,202.256042 299.595215,202.748093 
	C304.953827,203.743256 310.355621,204.550171 315.663422,205.766998 
	C335.992035,210.427399 354.300415,219.649323 371.061554,231.756332 
	C399.329987,252.175308 419.635925,278.976959 432.602600,311.302277 
	C440.695343,331.477051 445.393860,352.406128 444.912109,374.239166 
	C444.718597,383.007996 444.015961,391.813354 442.795837,400.496765 
	C441.813782,407.485870 440.276733,414.516876 437.950287,421.166992 
	C435.003662,429.589752 431.008331,437.645630 426.900848,446.084198 
	C424.599762,450.055328 422.298676,454.026459 419.421631,458.013702 
	C419.098114,458.314423 418.774597,458.615112 418.451080,458.915833 
	C418.653870,459.107605 418.856628,459.299408 419.059387,459.491211 
	C419.373657,458.994965 419.687927,458.498688 420.638306,457.759583 
M255.193970,252.729889 
	C254.839218,253.397354 254.484467,254.064835 253.805450,255.342422 
	C257.885681,254.800919 261.302948,254.215515 264.745148,253.918427 
	C271.625732,253.324646 272.324188,252.436691 270.837311,245.041794 
	C269.151215,245.768280 267.513916,246.465530 265.883240,247.178024 
	C262.237549,248.770935 258.595154,250.371460 254.391342,251.386856 
	C255.975983,250.085892 257.560608,248.784912 259.974854,246.802841 
	C255.015930,242.185623 250.829834,238.171341 246.480667,234.342285 
	C245.664703,233.623917 243.802597,232.995728 243.091736,233.427216 
	C236.541214,237.403427 230.137817,241.622040 222.975876,246.230682 
	C228.551758,251.473236 233.431519,256.061310 238.369003,260.703644 
	C242.306290,258.273224 246.316864,255.678345 250.457260,253.310501 
	C251.792160,252.547089 253.468689,252.380997 255.193970,252.729889 
M209.034988,258.387817 
	C211.876862,264.189789 214.613449,270.046692 217.600998,275.772644 
	C219.329575,279.085663 218.332840,281.514038 216.414368,284.423553 
	C211.440262,291.967102 206.464508,299.567841 202.295410,307.565887 
	C198.828873,314.216125 199.358887,314.359863 192.055710,312.989441 
	C186.934326,312.028412 181.740616,311.452789 176.680939,310.719788 
	C175.777573,314.908783 175.064728,318.143860 174.385483,321.385986 
	C173.828171,324.046051 174.119766,325.994751 177.162369,327.340393 
	C182.304764,329.614685 187.351318,332.219025 192.092102,335.229614 
	C193.870056,336.358643 195.764618,339.012848 195.757553,340.965027 
	C195.713776,353.083435 197.892395,364.746277 201.734344,376.166016 
	C202.728149,379.119995 201.814240,381.174011 199.124664,382.881592 
	C195.356873,385.273712 191.625641,387.810028 188.289429,390.750519 
	C187.045044,391.847382 186.000931,394.612488 186.519470,395.997772 
	C188.063065,400.121552 190.427719,403.937958 192.395706,407.728394 
	C198.835983,406.294739 204.779877,404.740265 210.817871,403.773987 
	C212.541840,403.498108 215.380219,404.353760 216.277344,405.667358 
	C223.377930,416.064148 232.350967,424.570587 241.929443,432.582367 
	C243.308685,433.736053 244.486328,436.207214 244.322586,437.932526 
	C243.775253,443.698853 242.345505,449.380524 241.775345,455.146210 
	C241.615555,456.761993 242.801636,459.235138 244.154343,460.130493 
	C247.290268,462.206055 250.904922,463.558319 254.664886,465.367126 
	C257.760437,460.293976 260.890991,455.455505 263.706696,450.440308 
	C265.417511,447.393066 267.030518,446.451416 270.814575,447.555969 
	C277.771332,449.586700 285.218048,452.352142 292.121704,451.619415 
	C304.261444,450.330872 309.725861,455.847809 313.791534,466.020111 
	C317.485016,475.261292 318.018097,474.791779 327.711609,473.077240 
	C331.193237,472.461426 331.762421,471.046722 331.273346,468.105255 
	C330.318787,462.363922 329.189941,456.627045 328.739929,450.841095 
	C328.601685,449.063782 329.969635,446.121918 331.446625,445.437805 
	C340.453278,441.266174 348.235504,435.545013 354.829498,428.218292 
	C357.221802,425.560120 359.445923,425.002289 362.651794,426.758423 
	C368.440918,429.929688 374.395203,432.799469 380.501190,435.907532 
	C382.317291,433.001251 384.044434,430.229431 385.779633,427.462708 
	C387.442871,424.810699 386.982910,422.776123 384.624390,420.554291 
	C380.658142,416.817871 377.243439,412.493408 373.254456,408.784454 
	C370.606171,406.322052 370.251923,403.658936 371.381317,400.697723 
	C375.330017,390.344330 377.000061,379.604889 376.933472,368.593048 
	C376.914703,365.490967 377.989624,364.254425 381.035645,363.628296 
	C386.976532,362.407135 392.813873,360.682159 398.904388,359.111603 
	C398.104218,354.747559 397.258850,350.861420 396.715851,346.933472 
	C396.321289,344.079285 394.920593,343.168091 392.106506,342.962036 
	C387.642578,342.635193 383.234039,341.614655 378.775757,341.129242 
	C374.433441,340.656372 372.496216,338.276428 370.844696,334.263733 
	C367.451538,326.019318 364.053284,317.522461 358.998291,310.288727 
	C354.012115,303.153473 353.620026,297.690399 358.379333,290.375244 
	C364.997162,280.203583 364.389984,279.986298 355.903534,271.712524 
	C353.623505,269.489624 351.902252,269.909363 349.872162,271.390930 
	C346.400513,273.924561 342.876404,276.411743 339.613525,279.198486 
	C336.684662,281.699921 334.330780,281.222626 331.233704,279.281708 
	C323.830841,274.642395 316.588623,269.134216 308.465240,266.419739 
	C299.304413,263.358643 296.566589,257.903137 295.565643,249.178055 
	C294.085632,236.276611 293.577576,236.332565 280.463593,235.367264 
	C280.163116,235.345154 279.846558,235.541702 278.962708,235.812103 
	C278.002106,241.399948 276.626770,247.215164 276.113373,253.105499 
	C275.730011,257.504089 273.493286,258.253418 269.744629,258.961151 
	C260.356201,260.733673 250.867767,262.497131 241.866058,265.571747 
	C237.531876,267.052124 235.556503,266.012177 233.041122,263.282104 
	C228.588791,258.449768 224.008041,253.735779 219.119690,248.592041 
	C215.413498,251.851318 212.108292,254.757980 209.034988,258.387817 
M191.731705,284.826111 
	C186.743164,279.079590 181.928452,273.167816 176.691025,267.657837 
	C174.161789,264.996979 174.165268,262.260315 174.268204,259.011200 
	C174.521881,251.004166 174.646713,242.977570 174.354828,234.975937 
	C174.228317,231.507904 173.914474,228.661453 177.226013,226.214035 
	C181.736557,222.880463 185.899261,219.049103 189.988724,215.195206 
	C190.832230,214.400314 191.429932,212.011642 190.893616,211.307297 
	C187.962585,207.457886 188.577988,200.071991 182.474533,199.783493 
	C176.485764,199.500412 170.413269,201.805664 164.321594,202.424637 
	C162.280045,202.632080 159.728088,201.612000 157.991440,200.351303 
	C151.343842,195.525497 144.946106,190.356506 138.427414,185.351654 
	C135.777771,183.317352 131.998260,182.612762 131.353806,178.354004 
	C130.708298,174.088348 129.503769,169.910645 128.705750,165.664047 
	C126.640724,154.674988 126.676239,154.668442 115.908340,153.208649 
	C115.743713,153.186325 115.581207,153.146042 115.418976,153.108658 
	C112.741669,152.491791 111.523399,153.519714 110.989639,156.276947 
	C109.823944,162.298523 108.559227,168.326248 106.806290,174.193542 
	C106.273468,175.976959 104.275536,177.854446 102.488983,178.629852 
	C97.521080,180.786072 91.289749,181.178604 87.412941,184.459946 
	C79.618019,191.057602 72.930099,190.019592 65.244362,184.987259 
	C61.856285,182.768860 57.088318,179.691406 54.099884,180.639282 
	C50.927105,181.645630 49.116219,186.958679 46.729652,190.404205 
	C46.553905,190.657944 46.532196,191.018387 46.354710,191.609528 
	C51.496796,197.683762 56.862690,203.774979 61.889702,210.134109 
	C63.151161,211.729843 64.238579,214.382950 63.843479,216.212708 
	C61.907028,225.180634 61.983212,234.059357 63.946480,242.943039 
	C64.782425,246.725616 63.302879,249.143753 60.403255,251.386719 
	C55.582108,255.116013 50.992237,259.144287 46.207714,263.127655 
	C47.925091,266.634521 49.838959,269.618713 50.875214,272.881622 
	C52.322674,277.439331 55.266392,277.546692 59.067795,276.771698 
	C64.106567,275.744415 69.164810,274.642883 74.269249,274.194977 
	C76.186554,274.026703 78.532875,275.220947 80.209175,276.444214 
	C87.382668,281.678864 94.124763,287.547150 101.549408,292.376923 
	C105.165085,294.728943 106.986084,297.365936 107.722748,301.310974 
	C108.820557,307.190002 109.978523,313.060822 111.294830,318.893616 
	C111.593399,320.216583 112.466553,322.263367 113.382980,322.447784 
	C117.682861,323.313202 122.090141,323.644928 126.599899,324.184082 
	C127.926102,317.618164 128.731033,311.678375 130.439529,306.010986 
	C131.275513,303.237915 130.539856,298.903564 135.274597,298.286255 
	C143.883942,297.163849 151.202728,293.197235 158.080002,288.098389 
	C159.293549,287.198669 161.570679,286.858490 163.015198,287.322601 
	C166.287781,288.374146 169.398529,289.987457 172.484772,291.550690 
	C184.719955,297.747833 184.707550,297.773499 191.764297,286.010529 
	C191.845627,285.874939 191.842819,285.688904 191.731705,284.826111 
M171.088715,81.605385 
	C170.086411,82.689789 168.758438,83.615204 168.137970,84.886032 
	C165.406693,90.480415 161.542694,92.533035 155.340866,90.323486 
	C152.102722,89.169823 148.463364,89.177010 145.029572,88.530602 
	C137.795090,87.168709 137.790497,87.131248 136.225250,94.103004 
	C136.007324,95.073738 136.216202,96.210861 135.792877,97.052307 
	C134.225784,100.167412 135.671005,101.856796 138.178116,103.568649 
	C143.243088,107.027008 148.308884,110.531265 153.006180,114.457100 
	C154.805359,115.960793 156.465530,118.580452 156.696426,120.843857 
	C157.614426,129.842667 159.424515,138.485428 163.107452,146.826111 
	C164.039337,148.936554 163.552521,152.383713 162.429291,154.548035 
	C159.845795,159.526154 156.361206,164.028778 153.496796,168.874786 
	C152.826920,170.008087 152.493149,172.347656 153.162170,173.092224 
	C156.235138,176.512100 159.710358,179.572006 163.095505,182.702408 
	C163.192078,182.791702 163.879181,182.188126 164.320709,181.967072 
	C169.045929,179.601212 173.663452,176.960327 178.558640,175.021301 
	C180.736893,174.158478 184.241501,173.659470 185.834213,174.809479 
	C193.545502,180.377243 202.109619,183.577347 211.193481,185.860611 
	C212.698547,186.238892 214.425140,187.586243 215.134933,188.958679 
	C218.252777,194.987350 220.915802,201.250946 224.022247,207.285995 
	C224.802231,208.801285 226.610428,210.811203 227.953278,210.816666 
	C231.655914,210.831680 235.362366,209.905838 238.850006,209.384598 
	C238.850006,201.501389 238.974747,194.345932 238.791168,187.198395 
	C238.713181,184.161469 240.037949,182.626770 242.335144,180.755280 
	C248.033295,176.113144 253.365402,170.993103 258.576599,165.796356 
	C260.580139,163.798386 262.110443,162.197647 265.317230,163.033524 
	C269.324310,164.078018 273.481842,164.547974 277.576691,165.252869 
	C286.466766,166.783249 286.469177,166.780334 288.838531,157.892578 
	C289.594879,155.055466 289.829102,152.739777 286.626587,150.733780 
	C281.590973,147.579575 277.161987,143.456680 272.124939,140.305298 
	C268.847137,138.254593 268.065033,135.638565 267.540741,132.151825 
	C266.511658,125.307190 266.151825,117.932365 263.192688,111.919914 
	C259.756500,104.938133 260.515686,99.820351 265.144043,94.410637 
	C265.786835,93.659325 266.322113,92.808510 266.851257,91.968521 
	C273.179199,81.922951 273.241821,81.855797 264.663055,73.280991 
	C263.690735,72.309128 261.174103,71.866051 259.887939,72.405060 
	C255.015396,74.447044 250.493744,77.375084 245.551834,79.180717 
	C243.315109,79.997963 240.167999,79.550278 237.845963,78.633125 
	C233.905548,77.076752 230.505310,73.718887 226.500381,72.840927 
	C214.426834,70.194199 206.753525,63.915180 202.619019,51.778324 
	C199.241119,41.862488 198.145538,42.227444 187.782730,44.444401 
	C187.005295,44.610725 186.275085,44.997772 185.868546,45.151505 
	C185.868546,51.447628 185.496429,57.449619 185.980545,63.381733 
	C186.405212,68.585617 185.310043,72.125435 180.193619,74.498871 
	C176.987778,75.986015 174.409393,78.825775 171.088715,81.605385 
M410.586060,443.079376 
	C406.209503,448.967285 402.996735,455.973419 395.462585,458.860016 
	C396.419220,467.518250 396.419220,467.518250 403.931213,469.401642 
	C405.207397,467.378662 406.304199,465.474792 407.558197,463.680817 
	C413.040527,455.837494 419.266754,448.418457 423.930328,440.119080 
	C432.872925,424.204559 437.548096,406.931641 439.344727,388.628296 
	C441.495148,366.720917 438.627380,345.552338 432.265259,324.773468 
	C426.547913,306.100494 417.522949,289.032928 405.898743,273.259918 
	C395.452362,259.085144 383.237671,246.685806 369.180756,236.272202 
	C349.895538,221.985321 328.330627,212.508606 304.567841,208.422638 
	C301.559692,207.905411 298.433319,208.075806 295.447418,207.931763 
	C294.364777,216.100723 294.947235,216.975189 299.859589,217.927933 
	C307.444336,219.399017 315.052826,220.884354 322.493103,222.936829 
	C341.530029,228.188400 358.163208,238.074570 373.112549,250.736115 
	C395.287628,269.517548 411.456970,292.512726 421.299469,320.011353 
	C431.137665,347.497833 433.930573,375.216553 427.285583,403.945801 
	C424.061707,417.884216 418.600342,430.559967 410.586060,443.079376 
M31.541901,159.150589 
	C29.864878,162.744873 28.068365,166.288910 26.532227,169.942444 
	C20.900408,183.336945 19.350559,197.382339 19.868107,211.783875 
	C19.970228,214.625488 19.282974,217.495438 18.918499,220.717056 
	C26.191402,226.396393 26.745941,226.337677 30.959438,219.916153 
	C30.141335,216.870697 29.080067,214.660187 29.021381,212.423386 
	C28.592621,196.081055 31.354490,180.407928 39.440521,165.954102 
	C47.918789,150.799149 60.107933,139.696960 76.245270,133.310257 
	C79.491486,132.025497 79.999466,131.047318 78.897652,128.089554 
	C76.773560,122.387527 74.891548,121.821915 68.711197,124.890518 
	C53.212742,132.585663 40.683170,143.470627 31.541901,159.150589 
M383.888397,329.376678 
	C387.215057,327.250763 390.445740,324.949921 393.899139,323.055023 
	C396.599182,321.573517 397.517975,319.789154 396.111694,317.022675 
	C391.482666,307.916443 386.895844,298.786682 382.059723,289.791199 
	C381.614166,288.962402 379.039948,288.288361 378.249207,288.791656 
	C372.052979,292.735382 366.050995,296.984253 360.347076,300.893585 
	C365.906342,311.908417 371.286713,322.568878 376.656433,333.208160 
	C377.044708,333.150879 377.425568,333.193298 377.693665,333.039307 
	C379.557953,331.968842 381.398895,330.857605 383.888397,329.376678 
M115.233772,61.839474 
	C108.948288,76.163971 106.043488,91.185295 106.055130,106.789268 
	C106.060638,114.171074 107.341545,115.071785 114.198723,113.270782 
	C115.322426,104.058052 115.755943,94.888550 117.676880,86.042030 
	C120.726189,71.998917 126.396835,58.962685 136.288528,48.173206 
	C137.980820,46.327324 140.096771,44.869862 142.846466,42.525894 
	C143.374832,34.440899 142.389511,33.100048 133.970184,32.166019 
	C127.851257,41.802044 121.708420,51.475716 115.233772,61.839474 
M321.216400,248.746002 
	C315.948303,252.034058 310.680176,255.322113 305.696320,258.432770 
	C315.538818,263.917725 325.398285,269.412109 335.639771,275.119415 
	C341.505432,270.858368 347.967438,266.164154 355.699951,260.546997 
	C346.552673,255.976517 338.110016,251.947571 329.868042,247.543076 
	C326.743439,245.873306 324.316010,246.032333 321.216400,248.746002 
M282.470337,125.907257 
	C285.273407,124.169136 288.190979,122.584885 290.827698,120.623154 
	C292.013153,119.741142 293.425018,118.083481 293.390350,116.814438 
	C293.140991,107.674911 291.093353,98.960922 286.615814,90.926735 
	C280.481232,94.881668 274.660736,98.446884 269.088989,102.365776 
	C267.793518,103.276924 266.348602,105.643616 266.668732,106.912605 
	C268.721619,115.049339 271.247253,123.066795 273.665039,131.285187 
	C276.262207,129.704681 279.057678,128.003525 282.470337,125.907257 
M180.155548,256.546448 
	C180.856430,257.030090 181.910141,258.092133 182.205917,257.911713 
	C187.831650,254.479874 193.447662,251.016281 198.858734,247.261078 
	C199.999863,246.469162 200.891068,244.510773 200.926666,243.065948 
	C201.123901,235.059372 201.021164,227.045395 201.021164,218.182236 
	C193.675766,222.702148 187.239075,226.542084 180.978439,230.650314 
	C180.077362,231.241592 179.631592,233.128479 179.643524,234.409546 
	C179.709778,241.517212 179.982620,248.622940 180.155548,256.546448 
M231.960907,42.536926 
	C229.523117,37.573292 227.085327,32.609657 224.508759,27.363457 
	C217.711899,31.591990 211.632965,35.225498 205.765854,39.173790 
	C204.816559,39.812622 204.068542,42.147972 204.488800,43.190815 
	C206.710144,48.702908 209.253601,54.093063 211.911697,59.412407 
	C212.291931,60.173321 214.309189,60.992355 214.882721,60.646553 
	C221.440842,56.692371 227.865860,52.517456 234.277161,48.432800 
	C233.497574,46.276081 232.937119,44.725613 231.960907,42.536926 
M256.429932,65.848236 
	C258.284149,64.577431 260.138336,63.306633 263.524658,60.985779 
	C255.647415,57.655266 249.280716,53.756706 242.402588,52.338554 
	C232.121262,50.218708 226.758957,60.026539 217.894241,63.576412 
	C223.282700,65.928757 227.568665,67.588898 231.665527,69.628860 
	C242.806763,75.176453 242.774094,75.238808 253.342041,67.885529 
	C254.156662,67.318695 254.997635,66.789680 256.429932,65.848236 
M407.175812,410.658661 
	C408.883301,409.491486 410.590790,408.324341 413.821320,406.116089 
	C408.608490,401.398621 404.142151,397.259003 399.528992,393.290039 
	C398.857025,392.711945 397.175903,392.454926 396.482391,392.886322 
	C389.989685,396.924927 383.610535,401.146149 375.420715,406.470306 
	C380.648346,411.004242 384.914948,414.920013 389.461395,418.478210 
	C390.449280,419.251343 392.770935,419.344543 393.910156,418.718018 
	C398.229767,416.342194 402.316071,413.542236 407.175812,410.658661 
M310.588745,132.975922 
	C306.681091,130.204361 302.840515,127.329506 298.825592,124.723213 
	C297.596436,123.925323 295.416229,123.050682 294.476715,123.596672 
	C287.997162,127.362228 281.730804,131.494675 274.677124,135.964645 
	C280.640808,140.318222 285.882202,144.250839 291.272430,147.967575 
	C292.104248,148.541138 293.908417,148.604599 294.771759,148.086121 
	C300.277374,144.779785 305.653473,141.256912 311.054688,137.778091 
	C313.182068,136.407883 313.730408,134.906601 310.588745,132.975922 
M396.236359,388.636780 
	C400.660492,381.207764 401.527893,372.993622 402.262970,364.087067 
	C396.192657,365.551453 390.966400,367.174957 385.617035,367.971497 
	C382.217163,368.477722 381.748627,370.155243 381.580627,372.945496 
	C381.312531,377.398529 380.782013,381.840149 380.233643,386.270660 
	C379.715424,390.457520 379.031250,394.623810 378.267944,399.838593 
	C384.574799,395.894226 390.081207,392.450500 396.236359,388.636780 
M133.220886,164.318726 
	C134.209610,168.120682 135.198318,171.922623 136.203384,175.787460 
	C152.868347,167.615738 159.972504,151.899597 151.288635,140.732864 
	C147.844498,142.971603 144.624619,145.752884 140.896683,147.343185 
	C133.342911,150.565475 129.455994,155.083771 133.220886,164.318726 
M203.266327,254.397766 
	C203.552628,251.155762 202.055435,250.482483 199.408905,251.871368 
	C197.667953,252.785034 196.054459,253.944153 194.396240,255.012497 
	C189.780991,257.985962 185.172165,260.969391 180.211105,264.174866 
	C185.173416,269.935547 189.519897,275.101654 194.045578,280.105682 
	C194.726074,280.858093 196.622620,281.498413 197.313492,281.093445 
	C201.788208,278.470337 206.084671,275.543152 210.575439,272.627380 
	C209.717972,270.975739 209.029572,269.853363 208.530579,268.652283 
	C206.658539,264.146362 204.848328,259.614777 203.266327,254.397766 
M264.565399,174.640274 
	C264.095490,174.537064 263.469818,174.185043 263.178619,174.367340 
	C257.194824,178.112976 251.233154,181.894867 245.316437,185.745392 
	C244.582001,186.223358 243.606857,187.141861 243.622757,187.836075 
	C243.768814,194.211456 244.109055,200.582367 244.432281,207.843735 
	C250.318619,204.171280 255.031387,200.926956 260.030518,198.209305 
	C263.951385,196.077789 265.989655,193.609253 265.298157,188.815704 
	C264.663574,184.416275 264.947113,179.884399 264.565399,174.640274 
M309.713898,251.252991 
	C310.820618,250.531815 311.851837,249.637222 313.046173,249.117401 
	C321.183716,245.575729 324.812927,240.398163 321.292786,231.143646 
	C319.628418,226.768021 317.019226,224.739670 312.709564,227.089432 
	C298.435791,234.871902 298.431030,234.872681 300.923737,250.743927 
	C301.144531,252.149719 301.481598,253.537231 301.910553,255.652710 
	C304.645172,254.128647 306.866425,252.890686 309.713898,251.252991 
M72.849762,165.459946 
	C67.819366,168.641083 62.788971,171.822205 56.746883,175.643112 
	C63.097301,178.571228 68.198372,181.157639 73.500450,183.229691 
	C75.158669,183.877701 77.701744,183.762863 79.245644,182.915131 
	C83.546722,180.553513 87.541786,177.632828 91.645889,174.915115 
	C93.174896,173.902618 94.671227,172.840775 97.059593,171.198196 
	C91.249229,168.528839 86.394592,166.603302 81.851929,164.109482 
	C78.566223,162.305740 76.019829,162.624252 72.849762,165.459946 
M344.776428,444.405914 
	C341.631226,446.181213 338.408966,447.838135 335.388214,449.804565 
	C334.491821,450.388062 333.541107,451.929382 333.675140,452.882874 
	C334.448059,458.381805 335.538849,463.836029 336.661591,470.082336 
	C343.704987,465.746979 350.272675,461.781586 356.717896,457.626221 
	C357.415192,457.176636 357.806671,455.562439 357.652985,454.597931 
	C356.809296,449.303589 355.751495,444.043396 354.639954,438.089996 
	C351.106232,440.269470 348.194977,442.065002 344.776428,444.405914 
M288.262177,54.910465 
	C281.257935,59.033886 274.253662,63.157307 266.637299,67.641083 
	C270.289398,72.022316 273.354065,75.698860 276.472046,79.439362 
	C283.957275,74.657333 290.685791,70.358749 297.797791,65.815155 
	C294.623016,62.030682 291.775177,58.635963 288.262177,54.910465 
M124.536293,78.292549 
	C121.848061,88.854530 119.637985,99.474380 120.226570,110.477890 
	C125.824089,110.547386 129.063187,107.670387 128.828659,102.636871 
	C128.109619,87.204445 131.435120,72.674469 138.167648,58.861973 
	C139.329575,56.478153 140.724167,54.207756 142.011292,51.884964 
	C141.617477,51.576962 141.223679,51.268959 140.829880,50.960957 
	C139.214188,52.669495 137.156036,54.135494 136.062592,56.130302 
	C132.188431,63.198082 128.643799,70.446495 124.536293,78.292549 
M410.733612,336.303253 
	C400.726349,342.714081 399.307220,347.193939 404.428894,357.073761 
	C409.957428,353.578857 415.509644,350.169128 420.927490,346.557800 
	C421.985596,345.852509 423.326904,344.223572 423.158417,343.262421 
	C422.464600,339.304321 421.239227,335.439362 420.021973,330.831024 
	C416.671082,332.853882 414.037659,334.443604 410.733612,336.303253 
M199.996536,190.313538 
	C197.283005,192.164795 194.460480,193.881302 191.915115,195.940399 
	C191.024612,196.660797 190.073105,198.549179 190.422119,199.348495 
	C192.164474,203.338989 194.330063,207.144699 196.388321,211.095169 
	C199.476227,209.168320 201.970901,207.611588 204.465652,206.054962 
	C206.972748,204.490662 209.617462,203.101028 211.924713,201.283127 
	C212.960953,200.466644 214.057739,198.671844 213.868225,197.529922 
	C212.814301,191.179413 207.061661,188.019119 199.996536,190.313538 
M165.629379,195.085251 
	C170.472610,192.046112 175.383179,189.105484 180.100098,185.881546 
	C181.002213,185.264984 181.141342,183.532120 181.632492,182.314270 
	C180.347916,182.124725 178.851715,181.415024 177.815781,181.836548 
	C173.550995,183.571777 169.223770,185.318192 165.308517,187.699966 
	C161.645950,189.927994 159.691742,188.731155 157.468628,185.749130 
	C154.441589,181.688721 151.038040,177.908966 147.690903,173.882507 
	C144.885406,175.823196 142.396240,177.545074 140.143219,179.103592 
	C147.031052,184.842987 153.529221,190.425079 160.277481,195.686432 
	C161.207397,196.411469 163.377182,195.546188 165.629379,195.085251 
M403.659851,335.194763 
	C408.076843,332.319183 412.493835,329.443573 417.081268,326.457031 
	C403.816559,321.342133 390.660309,324.903320 381.488434,336.242981 
	C388.924194,336.271729 396.025116,341.569183 403.659851,335.194763 
M362.186249,271.330688 
	C363.538818,272.780090 364.759094,274.396606 366.295868,275.613342 
	C367.153900,276.292694 368.909088,276.940094 369.624329,276.519897 
	C374.274841,273.787720 378.750885,270.758514 383.087738,267.953491 
	C379.604431,263.764374 376.383423,259.890686 373.178162,256.035950 
	C367.463867,259.628113 362.658478,262.648956 357.310760,266.010712 
	C359.077667,267.985596 360.363953,269.423279 362.186249,271.330688 
M136.748611,319.987305 
	C140.551117,317.643158 144.213913,315.022125 148.187546,313.017090 
	C154.840347,309.660248 153.508392,303.272461 155.364059,297.429779 
	C148.534348,299.916992 142.540924,302.099640 136.267365,304.384338 
	C134.958954,310.006653 133.585083,315.910217 131.963058,322.880188 
	C134.023361,321.651642 135.097626,321.011078 136.748611,319.987305 
M45.082218,177.670273 
	C47.292915,171.328827 49.503609,164.987381 51.843056,158.276627 
	C40.008732,168.409927 30.802841,197.561707 34.894440,210.515518 
	C40.326130,208.788559 42.673180,205.383865 42.078220,199.432602 
	C41.569416,194.343201 39.718590,189.023117 43.191887,184.043549 
	C44.259598,182.512772 44.440559,180.363480 45.082218,177.670273 
M161.135803,85.108368 
	C164.899811,80.681534 168.663818,76.254700 172.284988,71.995842 
	C165.035294,68.375771 159.133194,70.607643 153.464066,75.153221 
	C150.272614,77.712158 146.596573,79.666695 143.138824,81.893501 
	C143.283203,82.274147 143.427567,82.654785 143.571945,83.035423 
	C149.258774,83.928856 154.945618,84.822289 161.135803,85.108368 
M314.791107,143.649521 
	C314.084137,143.334412 313.106964,142.550201 312.712402,142.777481 
	C309.154358,144.826950 305.859253,147.388763 302.177551,149.155350 
	C295.507629,152.355820 292.492584,157.487808 292.713776,165.434082 
	C297.266479,162.468658 301.242249,159.050156 305.839905,157.091202 
	C311.775085,154.562347 313.649689,149.980408 314.791107,143.649521 
M124.800262,149.166229 
	C134.334961,148.822052 139.458466,140.921814 146.864227,136.769119 
	C142.683441,135.935104 138.172928,134.379242 134.957413,135.785172 
	C128.484695,138.615250 122.717361,143.058640 116.658989,146.836380 
	C116.737854,147.215683 116.816719,147.594986 116.895584,147.974289 
	C119.267189,148.356522 121.638786,148.738739 124.800262,149.166229 
M372.774933,280.323090 
	C367.658997,283.377899 366.065002,288.569946 363.315308,294.546204 
	C380.419189,284.829376 384.940033,280.423370 385.779999,272.246185 
	C381.322052,275.065826 377.380585,277.558838 372.774933,280.323090 
M272.017944,93.755028 
	C272.698486,94.317390 273.702759,95.509491 274.012421,95.350319 
	C282.493530,90.990723 290.530212,86.118523 293.670593,75.331688 
	C284.413849,79.285522 276.871704,84.312279 272.017944,93.755028 
M287.547516,230.979889 
	C295.494934,233.806808 300.793549,228.813782 306.744446,224.813568 
	C298.783569,220.569702 291.376648,222.270966 283.941559,229.904068 
	C284.952332,230.258575 285.858063,230.576248 287.547516,230.979889 
M149.555664,32.314564 
	C145.809769,38.163071 148.946915,43.824062 149.340042,49.893166 
	C157.583832,45.656311 158.022675,44.840523 156.725067,36.931351 
	C156.591110,36.114918 156.290573,35.325558 156.160370,34.508804 
	C155.272446,28.938538 155.060074,28.839411 149.555664,32.314564 
M194.763916,185.573914 
	C192.112045,185.508209 189.023788,184.532043 186.892944,185.553375 
	C181.269073,188.248901 176.060516,191.810928 170.686615,195.027985 
	C170.853058,195.524902 171.019501,196.021805 171.185944,196.518723 
	C176.345886,195.397888 181.743774,194.875305 186.583817,192.950180 
	C189.922729,191.622101 192.489853,188.353622 194.763916,185.573914 
M192.413452,307.864624 
	C194.178055,307.083740 196.798599,306.771271 197.534042,305.427216 
	C199.208939,302.366364 199.958939,298.799408 201.381546,294.552032 
	C194.141846,298.455139 187.779114,301.885437 180.180115,305.982239 
	C185.047211,306.723755 188.304367,307.220001 192.413452,307.864624 
M391.629272,428.056976 
	C390.720612,429.483154 389.811951,430.909332 388.903320,432.335510 
	C389.226562,432.603973 389.549835,432.872437 389.873108,433.140900 
	C397.371307,427.976654 407.247040,425.548004 410.395752,415.379211 
	C410.087555,414.989502 409.779358,414.599792 409.471161,414.210083 
	C403.614288,418.599976 397.757446,422.989899 391.629272,428.056976 
M204.547058,29.011887 
	C200.070084,31.983780 195.593094,34.955669 190.372803,38.420982 
	C199.040649,38.018147 210.503555,32.148846 215.931213,25.234735 
	C211.706299,26.584450 208.461060,27.621193 204.547058,29.011887 
M141.785965,20.517010 
	C137.570129,19.061586 134.520523,20.567448 132.102448,24.042158 
	C139.854538,31.022261 145.194733,31.128586 150.697479,24.370169 
	C147.926453,23.164965 145.224487,21.989799 141.785965,20.517010 
M210.102188,282.668976 
	C211.098541,281.296967 212.094879,279.924988 213.091232,278.552979 
	C212.628952,278.160309 212.166672,277.767639 211.704391,277.374969 
	C206.080811,283.247131 195.797821,284.146698 193.862411,293.954926 
	C194.217087,294.368896 194.571762,294.782867 194.926437,295.196869 
	C199.900436,291.243744 204.874420,287.290588 210.102188,282.668976 
M89.346680,115.421165 
	C80.596977,119.099747 79.672501,122.218445 85.355591,128.884995 
	C94.147530,124.569328 94.147530,124.569328 89.346680,115.421165 
M416.242798,464.870911 
	C415.562195,465.334137 414.661346,465.654633 414.248535,466.291443 
	C413.476807,467.481873 412.988251,468.855896 412.381897,470.153534 
	C413.928864,470.316254 415.484619,470.653290 417.019531,470.576141 
	C417.935608,470.530121 419.119934,470.066345 419.649506,469.378906 
	C420.529602,468.236328 421.774445,466.510681 421.447693,465.480316 
	C420.741730,463.254333 418.879272,462.590088 416.242798,464.870911 
M265.983917,456.718323 
	C265.670654,457.683685 265.357361,458.649048 265.044098,459.614410 
	C265.353180,459.951050 265.662231,460.287689 265.971283,460.624329 
	C268.815765,458.945129 271.660248,457.265961 274.968140,455.313202 
	C270.915161,452.152618 268.457123,453.084167 265.983917,456.718323 
M387.626587,271.913910 
	C387.598358,271.844391 387.570129,271.774902 387.626587,271.913910 
M252.508881,255.489059 
	C252.508881,255.489059 252.531693,255.520523 252.508881,255.489059 
z"/>
<path fill="#176282" opacity="1.000000" stroke="none" 
	d="
M208.919037,258.026245 
	C212.108292,254.757980 215.413498,251.851318 219.119690,248.592041 
	C224.008041,253.735779 228.588791,258.449768 233.041122,263.282104 
	C235.556503,266.012177 237.531876,267.052124 241.866058,265.571747 
	C250.867767,262.497131 260.356201,260.733673 269.744629,258.961151 
	C273.493286,258.253418 275.730011,257.504089 276.113373,253.105499 
	C276.626770,247.215164 278.002106,241.399948 278.962708,235.812103 
	C279.846558,235.541702 280.163116,235.345154 280.463593,235.367264 
	C293.577576,236.332565 294.085632,236.276611 295.565643,249.178055 
	C296.566589,257.903137 299.304413,263.358643 308.465240,266.419739 
	C316.588623,269.134216 323.830841,274.642395 331.233704,279.281708 
	C334.330780,281.222626 336.684662,281.699921 339.613525,279.198486 
	C342.876404,276.411743 346.400513,273.924561 349.872162,271.390930 
	C351.902252,269.909363 353.623505,269.489624 355.903534,271.712524 
	C364.389984,279.986298 364.997162,280.203583 358.379333,290.375244 
	C353.620026,297.690399 354.012115,303.153473 358.998291,310.288727 
	C364.053284,317.522461 367.451538,326.019318 370.844696,334.263733 
	C372.496216,338.276428 374.433441,340.656372 378.775757,341.129242 
	C383.234039,341.614655 387.642578,342.635193 392.106506,342.962036 
	C394.920593,343.168091 396.321289,344.079285 396.715851,346.933472 
	C397.258850,350.861420 398.104218,354.747559 398.904388,359.111603 
	C392.813873,360.682159 386.976532,362.407135 381.035645,363.628296 
	C377.989624,364.254425 376.914703,365.490967 376.933472,368.593048 
	C377.000061,379.604889 375.330017,390.344330 371.381317,400.697723 
	C370.251923,403.658936 370.606171,406.322052 373.254456,408.784454 
	C377.243439,412.493408 380.658142,416.817871 384.624390,420.554291 
	C386.982910,422.776123 387.442871,424.810699 385.779633,427.462708 
	C384.044434,430.229431 382.317291,433.001251 380.501190,435.907532 
	C374.395203,432.799469 368.440918,429.929688 362.651794,426.758423 
	C359.445923,425.002289 357.221802,425.560120 354.829498,428.218292 
	C348.235504,435.545013 340.453278,441.266174 331.446625,445.437805 
	C329.969635,446.121918 328.601685,449.063782 328.739929,450.841095 
	C329.189941,456.627045 330.318787,462.363922 331.273346,468.105255 
	C331.762421,471.046722 331.193237,472.461426 327.711609,473.077240 
	C318.018097,474.791779 317.485016,475.261292 313.791534,466.020111 
	C309.725861,455.847809 304.261444,450.330872 292.121704,451.619415 
	C285.218048,452.352142 277.771332,449.586700 270.814575,447.555969 
	C267.030518,446.451416 265.417511,447.393066 263.706696,450.440308 
	C260.890991,455.455505 257.760437,460.293976 254.664886,465.367126 
	C250.904922,463.558319 247.290268,462.206055 244.154343,460.130493 
	C242.801636,459.235138 241.615555,456.761993 241.775345,455.146210 
	C242.345505,449.380524 243.775253,443.698853 244.322586,437.932526 
	C244.486328,436.207214 243.308685,433.736053 241.929443,432.582367 
	C232.350967,424.570587 223.377930,416.064148 216.277344,405.667358 
	C215.380219,404.353760 212.541840,403.498108 210.817871,403.773987 
	C204.779877,404.740265 198.835983,406.294739 192.395706,407.728394 
	C190.427719,403.937958 188.063065,400.121552 186.519470,395.997772 
	C186.000931,394.612488 187.045044,391.847382 188.289429,390.750519 
	C191.625641,387.810028 195.356873,385.273712 199.124664,382.881592 
	C201.814240,381.174011 202.728149,379.119995 201.734344,376.166016 
	C197.892395,364.746277 195.713776,353.083435 195.757553,340.965027 
	C195.764618,339.012848 193.870056,336.358643 192.092102,335.229614 
	C187.351318,332.219025 182.304764,329.614685 177.162369,327.340393 
	C174.119766,325.994751 173.828171,324.046051 174.385483,321.385986 
	C175.064728,318.143860 175.777573,314.908783 176.680939,310.719788 
	C181.740616,311.452789 186.934326,312.028412 192.055710,312.989441 
	C199.358887,314.359863 198.828873,314.216125 202.295410,307.565887 
	C206.464508,299.567841 211.440262,291.967102 216.414368,284.423553 
	C218.332840,281.514038 219.329575,279.085663 217.600998,275.772644 
	C214.613449,270.046692 211.876862,264.189789 208.919037,258.026245 
M330.624573,367.745544 
	C330.541229,365.729492 330.457916,363.713440 330.347778,361.612732 
	C330.347778,361.612732 330.331024,361.525482 330.235382,360.805725 
	C329.629242,359.213379 329.023071,357.621063 328.925751,355.453186 
	C329.165344,353.990753 329.404938,352.528351 329.745392,350.391602 
	C328.548065,348.837524 327.350739,347.283447 325.606354,345.201752 
	C321.843994,344.504791 318.081604,343.807800 314.163147,343.081940 
	C314.163147,351.884613 314.163147,359.922394 314.296967,368.650269 
	C315.886322,368.982208 317.475677,369.314117 319.846649,369.796844 
	C320.906952,369.826233 321.967285,369.855621 323.591980,370.309387 
	C325.728149,369.539703 327.864319,368.770020 330.000000,368.000000 
	C330.000000,368.000000 330.000336,368.000519 330.624573,367.745544 
M280.153900,368.655823 
	C281.110870,368.920166 282.067841,369.184509 283.846191,369.780853 
	C285.890259,369.716003 287.934326,369.651184 290.631256,369.690460 
	C291.492340,369.137543 292.353424,368.584625 293.455566,367.905548 
	C293.455566,367.905548 293.516083,367.640320 294.195374,367.482025 
	C301.640625,361.361877 302.333221,352.625610 296.060455,343.478973 
	C295.832275,343.237274 295.604095,342.995544 295.052917,342.145355 
	C292.926453,340.619232 290.971893,338.727936 288.643066,337.631714 
	C279.686615,333.415649 270.386444,338.651581 269.854736,348.501953 
	C269.882660,348.670715 269.910553,348.839478 269.635223,349.635468 
	C269.702728,350.085999 269.770203,350.536530 269.787048,351.502838 
	C269.812866,351.673645 269.838715,351.844421 269.613678,352.815857 
	C271.213837,356.656158 272.813995,360.496490 274.763977,364.931976 
	C276.485992,365.984436 278.208008,367.036896 279.993652,368.008881 
	C279.993652,368.008881 279.907562,368.064636 280.153900,368.655823 
M249.847290,333.498413 
	C247.441956,332.528107 245.888458,332.884064 244.951019,335.714600 
	C242.918472,341.851898 240.486206,347.856415 238.425385,353.985107 
	C238.074310,355.029175 238.756607,356.420776 238.961517,357.651825 
	C240.061447,356.934937 241.226013,356.298615 242.244949,355.480835 
	C243.520203,354.457428 244.774063,352.261322 245.864868,352.366028 
	C249.324280,352.698120 253.234512,352.875793 254.456406,357.459747 
	C254.783569,358.687073 255.946411,359.691650 256.725616,360.798492 
	C257.274536,360.571991 257.823456,360.345520 258.372375,360.119019 
	C257.822174,350.860229 253.257172,342.642090 249.847290,333.498413 
z"/>
<path fill="#186383" opacity="1.000000" stroke="none" 
	d="
M191.805496,285.176270 
	C191.842819,285.688904 191.845627,285.874939 191.764297,286.010529 
	C184.707550,297.773499 184.719955,297.747833 172.484772,291.550690 
	C169.398529,289.987457 166.287781,288.374146 163.015198,287.322601 
	C161.570679,286.858490 159.293549,287.198669 158.080002,288.098389 
	C151.202728,293.197235 143.883942,297.163849 135.274597,298.286255 
	C130.539856,298.903564 131.275513,303.237915 130.439529,306.010986 
	C128.731033,311.678375 127.926102,317.618164 126.599899,324.184082 
	C122.090141,323.644928 117.682861,323.313202 113.382980,322.447784 
	C112.466553,322.263367 111.593399,320.216583 111.294830,318.893616 
	C109.978523,313.060822 108.820557,307.190002 107.722748,301.310974 
	C106.986084,297.365936 105.165085,294.728943 101.549408,292.376923 
	C94.124763,287.547150 87.382668,281.678864 80.209175,276.444214 
	C78.532875,275.220947 76.186554,274.026703 74.269249,274.194977 
	C69.164810,274.642883 64.106567,275.744415 59.067795,276.771698 
	C55.266392,277.546692 52.322674,277.439331 50.875214,272.881622 
	C49.838959,269.618713 47.925091,266.634521 46.207714,263.127655 
	C50.992237,259.144287 55.582108,255.116013 60.403255,251.386719 
	C63.302879,249.143753 64.782425,246.725616 63.946480,242.943039 
	C61.983212,234.059357 61.907028,225.180634 63.843479,216.212708 
	C64.238579,214.382950 63.151161,211.729843 61.889702,210.134109 
	C56.862690,203.774979 51.496796,197.683762 46.354710,191.609528 
	C46.532196,191.018387 46.553905,190.657944 46.729652,190.404205 
	C49.116219,186.958679 50.927105,181.645630 54.099884,180.639282 
	C57.088318,179.691406 61.856285,182.768860 65.244362,184.987259 
	C72.930099,190.019592 79.618019,191.057602 87.412941,184.459946 
	C91.289749,181.178604 97.521080,180.786072 102.488983,178.629852 
	C104.275536,177.854446 106.273468,175.976959 106.806290,174.193542 
	C108.559227,168.326248 109.823944,162.298523 110.989639,156.276947 
	C111.523399,153.519714 112.741669,152.491791 115.418976,153.108658 
	C115.581207,153.146042 115.743713,153.186325 115.908340,153.208649 
	C126.676239,154.668442 126.640724,154.674988 128.705750,165.664047 
	C129.503769,169.910645 130.708298,174.088348 131.353806,178.354004 
	C131.998260,182.612762 135.777771,183.317352 138.427414,185.351654 
	C144.946106,190.356506 151.343842,195.525497 157.991440,200.351303 
	C159.728088,201.612000 162.280045,202.632080 164.321594,202.424637 
	C170.413269,201.805664 176.485764,199.500412 182.474533,199.783493 
	C188.577988,200.071991 187.962585,207.457886 190.893616,211.307297 
	C191.429932,212.011642 190.832230,214.400314 189.988724,215.195206 
	C185.899261,219.049103 181.736557,222.880463 177.226013,226.214035 
	C173.914474,228.661453 174.228317,231.507904 174.354828,234.975937 
	C174.646713,242.977570 174.521881,251.004166 174.268204,259.011200 
	C174.165268,262.260315 174.161789,264.996979 176.691025,267.657837 
	C181.928452,273.167816 186.743164,279.079590 191.805496,285.176270 
M141.704224,251.919876 
	C145.601334,252.318314 150.348312,252.780685 151.456635,248.316650 
	C152.454041,244.299255 152.424896,239.068329 150.604355,235.526016 
	C147.582108,229.645477 141.111572,229.975601 134.607574,230.057602 
	C134.607574,235.263962 134.956528,240.080414 134.512085,244.822510 
	C134.042389,249.834061 136.040115,251.915482 141.704224,251.919876 
M88.863388,239.439301 
	C88.221634,237.088959 86.902702,234.669678 87.132919,232.408096 
	C87.353119,230.244949 88.722328,227.413879 90.459702,226.449493 
	C91.746162,225.735397 94.493233,227.404541 96.475510,228.272598 
	C97.989777,228.935745 99.325325,230.006989 100.740379,230.896698 
	C100.445534,229.481232 99.497986,228.838531 99.141960,227.956940 
	C97.011131,222.680649 89.829659,220.722153 85.676239,224.372360 
	C82.590637,227.084122 81.967468,235.021683 84.500092,239.353699 
	C87.249664,244.056808 92.585655,246.396042 97.204254,244.923050 
	C101.070580,243.689987 102.141403,240.161392 99.271057,237.239716 
	C96.672684,240.536453 94.053993,244.336807 88.863388,239.439301 
M116.457184,239.908188 
	C116.934967,238.533249 117.412750,237.158325 117.890533,235.783386 
	C120.372459,239.637238 121.463364,243.395142 122.820457,247.054306 
	C123.132538,247.895798 124.358589,248.398315 125.164040,249.056824 
	C125.595451,248.130753 126.588226,247.035110 126.367950,246.305893 
	C124.838226,241.241608 123.327431,236.137543 121.251572,231.285385 
	C120.053093,228.484039 117.427620,228.377075 115.977821,231.179718 
	C113.771065,235.445694 112.003998,239.950150 110.266335,244.437027 
	C109.971802,245.197540 110.761429,246.377914 111.050163,247.364319 
	C112.026505,246.792999 113.344757,246.447449 113.903931,245.600647 
	C114.892906,244.102982 115.419960,242.300293 116.457184,239.908188 
z"/>
<path fill="#196384" opacity="1.000000" stroke="none" 
	d="
M171.319092,81.332008 
	C174.409393,78.825775 176.987778,75.986015 180.193619,74.498871 
	C185.310043,72.125435 186.405212,68.585617 185.980545,63.381733 
	C185.496429,57.449619 185.868546,51.447628 185.868546,45.151505 
	C186.275085,44.997772 187.005295,44.610725 187.782730,44.444401 
	C198.145538,42.227444 199.241119,41.862488 202.619019,51.778324 
	C206.753525,63.915180 214.426834,70.194199 226.500381,72.840927 
	C230.505310,73.718887 233.905548,77.076752 237.845963,78.633125 
	C240.167999,79.550278 243.315109,79.997963 245.551834,79.180717 
	C250.493744,77.375084 255.015396,74.447044 259.887939,72.405060 
	C261.174103,71.866051 263.690735,72.309128 264.663055,73.280991 
	C273.241821,81.855797 273.179199,81.922951 266.851257,91.968521 
	C266.322113,92.808510 265.786835,93.659325 265.144043,94.410637 
	C260.515686,99.820351 259.756500,104.938133 263.192688,111.919914 
	C266.151825,117.932365 266.511658,125.307190 267.540741,132.151825 
	C268.065033,135.638565 268.847137,138.254593 272.124939,140.305298 
	C277.161987,143.456680 281.590973,147.579575 286.626587,150.733780 
	C289.829102,152.739777 289.594879,155.055466 288.838531,157.892578 
	C286.469177,166.780334 286.466766,166.783249 277.576691,165.252869 
	C273.481842,164.547974 269.324310,164.078018 265.317230,163.033524 
	C262.110443,162.197647 260.580139,163.798386 258.576599,165.796356 
	C253.365402,170.993103 248.033295,176.113144 242.335144,180.755280 
	C240.037949,182.626770 238.713181,184.161469 238.791168,187.198395 
	C238.974747,194.345932 238.850006,201.501389 238.850006,209.384598 
	C235.362366,209.905838 231.655914,210.831680 227.953278,210.816666 
	C226.610428,210.811203 224.802231,208.801285 224.022247,207.285995 
	C220.915802,201.250946 218.252777,194.987350 215.134933,188.958679 
	C214.425140,187.586243 212.698547,186.238892 211.193481,185.860611 
	C202.109619,183.577347 193.545502,180.377243 185.834213,174.809479 
	C184.241501,173.659470 180.736893,174.158478 178.558640,175.021301 
	C173.663452,176.960327 169.045929,179.601212 164.320709,181.967072 
	C163.879181,182.188126 163.192078,182.791702 163.095505,182.702408 
	C159.710358,179.572006 156.235138,176.512100 153.162170,173.092224 
	C152.493149,172.347656 152.826920,170.008087 153.496796,168.874786 
	C156.361206,164.028778 159.845795,159.526154 162.429291,154.548035 
	C163.552521,152.383713 164.039337,148.936554 163.107452,146.826111 
	C159.424515,138.485428 157.614426,129.842667 156.696426,120.843857 
	C156.465530,118.580452 154.805359,115.960793 153.006180,114.457100 
	C148.308884,110.531265 143.243088,107.027008 138.178116,103.568649 
	C135.671005,101.856796 134.225784,100.167412 135.792877,97.052307 
	C136.216202,96.210861 136.007324,95.073738 136.225250,94.103004 
	C137.790497,87.131248 137.795090,87.168709 145.029572,88.530602 
	C148.463364,89.177010 152.102722,89.169823 155.340866,90.323486 
	C161.542694,92.533035 165.406693,90.480415 168.137970,84.886032 
	C168.758438,83.615204 170.086411,82.689789 171.319092,81.332008 
M207.875076,137.169464 
	C207.872635,143.806274 207.759033,150.446518 207.964401,157.076889 
	C208.004044,158.356720 209.069687,160.444977 210.045181,160.701157 
	C213.218277,161.534393 216.560013,161.922699 219.853638,162.050827 
	C224.184174,162.219284 227.773911,158.524048 226.373566,154.748428 
	C224.832809,150.594284 223.762177,146.779312 224.200012,142.222321 
	C224.372269,140.429413 221.483902,136.875702 219.689255,136.663666 
	C215.867905,136.212250 211.862625,132.900299 207.875076,137.169464 
M222.709335,104.795784 
	C221.998459,102.584122 221.145203,100.406204 220.611130,98.152641 
	C219.868713,95.019928 218.277390,94.030144 215.043549,95.500671 
	C217.230804,102.403084 219.240906,109.204277 221.627426,115.870728 
	C222.075729,117.123039 224.001083,118.543991 225.292023,118.590965 
	C226.462021,118.633545 228.173645,117.154984 228.814987,115.916512 
	C230.936539,111.819603 232.882462,107.601547 234.470932,103.274048 
	C235.084702,101.601967 234.560501,99.512161 234.554749,97.612679 
	C233.142685,98.769684 231.221924,99.652451 230.420670,101.138741 
	C228.545364,104.617332 227.206879,108.385323 225.651047,112.036133 
	C225.286407,111.923492 224.921783,111.810844 224.557144,111.698196 
	C224.004913,109.657761 223.452682,107.617317 222.709335,104.795784 
M189.216537,107.884857 
	C189.642761,109.748436 189.699417,113.014877 190.557068,113.240837 
	C195.069351,114.429596 199.783997,114.850319 204.428375,115.537674 
	C204.553726,114.931648 204.679092,114.325623 204.804443,113.719597 
	C202.923019,113.037720 201.060013,111.836525 199.156799,111.769005 
	C192.843460,111.545029 192.098160,110.639908 193.882217,103.493820 
	C197.018097,103.743507 200.236816,103.999794 204.636246,104.350090 
	C202.007996,98.689857 196.326874,101.438766 193.446472,98.544975 
	C193.446472,96.546043 193.446472,94.343178 193.446472,91.935936 
	C197.509659,92.346603 201.146652,92.714203 205.024033,93.106102 
	C204.866730,91.747963 204.889771,90.874367 204.744186,90.845299 
	C200.113113,89.920616 195.476151,88.999748 190.800552,88.373314 
	C190.433487,88.324127 189.370529,90.398376 189.329422,91.511536 
	C189.139313,96.661362 189.196182,101.820312 189.216537,107.884857 
M196.930496,134.438553 
	C196.351196,140.083954 196.798538,145.552017 200.083359,150.735229 
	C201.481461,146.201370 201.826874,141.666840 202.093979,137.127716 
	C202.304779,133.545441 200.867249,132.141342 196.930496,134.438553 
M200.175552,152.359421 
	C198.857803,153.431580 197.030212,154.285294 196.437714,155.668198 
	C196.142166,156.358017 197.929169,158.262344 199.128540,159.124161 
	C199.667099,159.511169 201.967789,158.603241 201.951035,158.428543 
	C201.761993,156.458649 201.277786,154.517090 200.175552,152.359421 
z"/>
<path fill="#AEB9C3" opacity="1.000000" stroke="none" 
	d="
M410.805054,442.791229 
	C418.600342,430.559967 424.061707,417.884216 427.285583,403.945801 
	C433.930573,375.216553 431.137665,347.497833 421.299469,320.011353 
	C411.456970,292.512726 395.287628,269.517548 373.112549,250.736115 
	C358.163208,238.074570 341.530029,228.188400 322.493103,222.936829 
	C315.052826,220.884354 307.444336,219.399017 299.859589,217.927933 
	C294.947235,216.975189 294.364777,216.100723 295.447418,207.931763 
	C298.433319,208.075806 301.559692,207.905411 304.567841,208.422638 
	C328.330627,212.508606 349.895538,221.985321 369.180756,236.272202 
	C383.237671,246.685806 395.452362,259.085144 405.898743,273.259918 
	C417.522949,289.032928 426.547913,306.100494 432.265259,324.773468 
	C438.627380,345.552338 441.495148,366.720917 439.344727,388.628296 
	C437.548096,406.931641 432.872925,424.204559 423.930328,440.119080 
	C419.266754,448.418457 413.040527,455.837494 407.558197,463.680817 
	C406.304199,465.474792 405.207397,467.378662 403.931213,469.401642 
	C396.419220,467.518250 396.419220,467.518250 395.462585,458.860016 
	C402.996735,455.973419 406.209503,448.967285 410.805054,442.791229 
z"/>
<path fill="#AEBAC3" opacity="1.000000" stroke="none" 
	d="
M427.465271,445.859711 
	C431.008331,437.645630 435.003662,429.589752 437.950287,421.166992 
	C440.276733,414.516876 441.813782,407.485870 442.795837,400.496765 
	C444.015961,391.813354 444.718597,383.007996 444.912109,374.239166 
	C445.393860,352.406128 440.695343,331.477051 432.602600,311.302277 
	C419.635925,278.976959 399.329987,252.175308 371.061554,231.756332 
	C354.300415,219.649323 335.992035,210.427399 315.663422,205.766998 
	C310.355621,204.550171 304.953827,203.743256 299.595215,202.748093 
	C299.436890,202.256042 299.278534,201.764008 299.120209,201.271957 
	C301.770905,200.221100 304.672333,197.878830 307.030060,198.336670 
	C319.029449,200.666809 331.239563,202.717026 342.721832,206.734634 
	C365.751556,214.792648 385.424957,228.568100 402.374359,246.044724 
	C418.538727,262.711914 431.888306,281.435486 439.879608,303.379913 
	C444.391479,315.769653 448.883911,328.455261 450.875641,341.393890 
	C452.924561,354.704010 452.236450,368.485504 452.168518,382.057800 
	C452.097107,396.326447 448.042450,409.883026 442.399811,422.811066 
	C438.919067,430.786011 434.048706,438.154388 429.086273,445.902588 
	C428.068665,445.959961 427.766968,445.909851 427.465271,445.859711 
z"/>
<path fill="#AEB9C3" opacity="1.000000" stroke="none" 
	d="
M31.758228,158.850983 
	C40.683170,143.470627 53.212742,132.585663 68.711197,124.890518 
	C74.891548,121.821915 76.773560,122.387527 78.897652,128.089554 
	C79.999466,131.047318 79.491486,132.025497 76.245270,133.310257 
	C60.107933,139.696960 47.918789,150.799149 39.440521,165.954102 
	C31.354490,180.407928 28.592621,196.081055 29.021381,212.423386 
	C29.080067,214.660187 30.141335,216.870697 30.959438,219.916153 
	C26.745941,226.337677 26.191402,226.396393 18.918499,220.717056 
	C19.282974,217.495438 19.970228,214.625488 19.868107,211.783875 
	C19.350559,197.382339 20.900408,183.336945 26.532227,169.942444 
	C28.068365,166.288910 29.864878,162.744873 31.758228,158.850983 
z"/>
<path fill="#1D6686" opacity="1.000000" stroke="none" 
	d="
M383.567871,329.568054 
	C381.398895,330.857605 379.557953,331.968842 377.693665,333.039307 
	C377.425568,333.193298 377.044708,333.150879 376.656433,333.208160 
	C371.286713,322.568878 365.906342,311.908417 360.347076,300.893585 
	C366.050995,296.984253 372.052979,292.735382 378.249207,288.791656 
	C379.039948,288.288361 381.614166,288.962402 382.059723,289.791199 
	C386.895844,298.786682 391.482666,307.916443 396.111694,317.022675 
	C397.517975,319.789154 396.599182,321.573517 393.899139,323.055023 
	C390.445740,324.949921 387.215057,327.250763 383.567871,329.568054 
z"/>
<path fill="#AEB9C3" opacity="1.000000" stroke="none" 
	d="
M115.399681,61.494431 
	C121.708420,51.475716 127.851257,41.802044 133.970184,32.166019 
	C142.389511,33.100048 143.374832,34.440899 142.846466,42.525894 
	C140.096771,44.869862 137.980820,46.327324 136.288528,48.173206 
	C126.396835,58.962685 120.726189,71.998917 117.676880,86.042030 
	C115.755943,94.888550 115.322426,104.058052 114.198723,113.270782 
	C107.341545,115.071785 106.060638,114.171074 106.055130,106.789268 
	C106.043488,91.185295 108.948288,76.163971 115.399681,61.494431 
z"/>
<path fill="#1D6686" opacity="1.000000" stroke="none" 
	d="
M321.522491,248.531219 
	C324.316010,246.032333 326.743439,245.873306 329.868042,247.543076 
	C338.110016,251.947571 346.552673,255.976517 355.699951,260.546997 
	C347.967438,266.164154 341.505432,270.858368 335.639771,275.119415 
	C325.398285,269.412109 315.538818,263.917725 305.696320,258.432770 
	C310.680176,255.322113 315.948303,252.034058 321.522491,248.531219 
z"/>
<path fill="#1D6686" opacity="1.000000" stroke="none" 
	d="
M282.161743,126.104805 
	C279.057678,128.003525 276.262207,129.704681 273.665039,131.285187 
	C271.247253,123.066795 268.721619,115.049339 266.668732,106.912605 
	C266.348602,105.643616 267.793518,103.276924 269.088989,102.365776 
	C274.660736,98.446884 280.481232,94.881668 286.615814,90.926735 
	C291.093353,98.960922 293.140991,107.674911 293.390350,116.814438 
	C293.425018,118.083481 292.013153,119.741142 290.827698,120.623154 
	C288.190979,122.584885 285.273407,124.169136 282.161743,126.104805 
z"/>
<path fill="#206887" opacity="1.000000" stroke="none" 
	d="
M180.170135,256.137878 
	C179.982620,248.622940 179.709778,241.517212 179.643524,234.409546 
	C179.631592,233.128479 180.077362,231.241592 180.978439,230.650314 
	C187.239075,226.542084 193.675766,222.702148 201.021164,218.182236 
	C201.021164,227.045395 201.123901,235.059372 200.926666,243.065948 
	C200.891068,244.510773 199.999863,246.469162 198.858734,247.261078 
	C193.447662,251.016281 187.831650,254.479874 182.205917,257.911713 
	C181.910141,258.092133 180.856430,257.030090 180.170135,256.137878 
z"/>
<path fill="#1D6686" opacity="1.000000" stroke="none" 
	d="
M232.168793,42.856033 
	C232.937119,44.725613 233.497574,46.276081 234.277161,48.432800 
	C227.865860,52.517456 221.440842,56.692371 214.882721,60.646553 
	C214.309189,60.992355 212.291931,60.173321 211.911697,59.412407 
	C209.253601,54.093063 206.710144,48.702908 204.488800,43.190815 
	C204.068542,42.147972 204.816559,39.812622 205.765854,39.173790 
	C211.632965,35.225498 217.711899,31.591990 224.508759,27.363457 
	C227.085327,32.609657 229.523117,37.573292 232.168793,42.856033 
z"/>
<path fill="#1F6887" opacity="1.000000" stroke="none" 
	d="
M256.128143,66.045662 
	C254.997635,66.789680 254.156662,67.318695 253.342041,67.885529 
	C242.774094,75.238808 242.806763,75.176453 231.665527,69.628860 
	C227.568665,67.588898 223.282700,65.928757 217.894241,63.576412 
	C226.758957,60.026539 232.121262,50.218708 242.402588,52.338554 
	C249.280716,53.756706 255.647415,57.655266 263.524658,60.985779 
	C260.138336,63.306633 258.284149,64.577431 256.128143,66.045662 
z"/>
<path fill="#206887" opacity="1.000000" stroke="none" 
	d="
M254.988922,251.941650 
	C253.468689,252.380997 251.792160,252.547089 250.457260,253.310501 
	C246.316864,255.678345 242.306290,258.273224 238.369003,260.703644 
	C233.431519,256.061310 228.551758,251.473236 222.975876,246.230682 
	C230.137817,241.622040 236.541214,237.403427 243.091736,233.427216 
	C243.802597,232.995728 245.664703,233.623917 246.480667,234.342285 
	C250.829834,238.171341 255.015930,242.185623 259.974854,246.802841 
	C257.560608,248.784912 255.975983,250.085892 254.696899,251.693390 
	C255.002441,251.999908 254.988922,251.941650 254.988922,251.941650 
z"/>
<path fill="#1F6787" opacity="1.000000" stroke="none" 
	d="
M406.832703,410.779785 
	C402.316071,413.542236 398.229767,416.342194 393.910156,418.718018 
	C392.770935,419.344543 390.449280,419.251343 389.461395,418.478210 
	C384.914948,414.920013 380.648346,411.004242 375.420715,406.470306 
	C383.610535,401.146149 389.989685,396.924927 396.482391,392.886322 
	C397.175903,392.454926 398.857025,392.711945 399.528992,393.290039 
	C404.142151,397.259003 408.608490,401.398621 413.821320,406.116089 
	C410.590790,408.324341 408.883301,409.491486 406.832703,410.779785 
z"/>
<path fill="#1D6686" opacity="1.000000" stroke="none" 
	d="
M310.912598,133.145660 
	C313.730408,134.906601 313.182068,136.407883 311.054688,137.778091 
	C305.653473,141.256912 300.277374,144.779785 294.771759,148.086121 
	C293.908417,148.604599 292.104248,148.541138 291.272430,147.967575 
	C285.882202,144.250839 280.640808,140.318222 274.677124,135.964645 
	C281.730804,131.494675 287.997162,127.362228 294.476715,123.596672 
	C295.416229,123.050682 297.596436,123.925323 298.825592,124.723213 
	C302.840515,127.329506 306.681091,130.204361 310.912598,133.145660 
z"/>
<path fill="#1F6787" opacity="1.000000" stroke="none" 
	d="
M395.911987,388.821777 
	C390.081207,392.450500 384.574799,395.894226 378.267944,399.838593 
	C379.031250,394.623810 379.715424,390.457520 380.233643,386.270660 
	C380.782013,381.840149 381.312531,377.398529 381.580627,372.945496 
	C381.748627,370.155243 382.217163,368.477722 385.617035,367.971497 
	C390.966400,367.174957 396.192657,365.551453 402.262970,364.087067 
	C401.527893,372.993622 400.660492,381.207764 395.911987,388.821777 
z"/>
<path fill="#1F6787" opacity="1.000000" stroke="none" 
	d="
M133.134186,163.906677 
	C129.455994,155.083771 133.342911,150.565475 140.896683,147.343185 
	C144.624619,145.752884 147.844498,142.971603 151.288635,140.732864 
	C159.972504,151.899597 152.868347,167.615738 136.203384,175.787460 
	C135.198318,171.922623 134.209610,168.120682 133.134186,163.906677 
z"/>
<path fill="#1F6887" opacity="1.000000" stroke="none" 
	d="
M203.140640,254.745270 
	C204.848328,259.614777 206.658539,264.146362 208.530579,268.652283 
	C209.029572,269.853363 209.717972,270.975739 210.575439,272.627380 
	C206.084671,275.543152 201.788208,278.470337 197.313492,281.093445 
	C196.622620,281.498413 194.726074,280.858093 194.045578,280.105682 
	C189.519897,275.101654 185.173416,269.935547 180.211105,264.174866 
	C185.172165,260.969391 189.780991,257.985962 194.396240,255.012497 
	C196.054459,253.944153 197.667953,252.785034 199.408905,251.871368 
	C202.055435,250.482483 203.552628,251.155762 203.140640,254.745270 
z"/>
<path fill="#206887" opacity="1.000000" stroke="none" 
	d="
M264.695801,175.025574 
	C264.947113,179.884399 264.663574,184.416275 265.298157,188.815704 
	C265.989655,193.609253 263.951385,196.077789 260.030518,198.209305 
	C255.031387,200.926956 250.318619,204.171280 244.432281,207.843735 
	C244.109055,200.582367 243.768814,194.211456 243.622757,187.836075 
	C243.606857,187.141861 244.582001,186.223358 245.316437,185.745392 
	C251.233154,181.894867 257.194824,178.112976 263.178619,174.367340 
	C263.469818,174.185043 264.095490,174.537064 264.695801,175.025574 
z"/>
<path fill="#1F6787" opacity="1.000000" stroke="none" 
	d="
M309.400818,251.452850 
	C306.866425,252.890686 304.645172,254.128647 301.910553,255.652710 
	C301.481598,253.537231 301.144531,252.149719 300.923737,250.743927 
	C298.431030,234.872681 298.435791,234.871902 312.709564,227.089432 
	C317.019226,224.739670 319.628418,226.768021 321.292786,231.143646 
	C324.812927,240.398163 321.183716,245.575729 313.046173,249.117401 
	C311.851837,249.637222 310.820618,250.531815 309.400818,251.452850 
z"/>
<path fill="#206887" opacity="1.000000" stroke="none" 
	d="
M73.173828,165.295013 
	C76.019829,162.624252 78.566223,162.305740 81.851929,164.109482 
	C86.394592,166.603302 91.249229,168.528839 97.059593,171.198196 
	C94.671227,172.840775 93.174896,173.902618 91.645889,174.915115 
	C87.541786,177.632828 83.546722,180.553513 79.245644,182.915131 
	C77.701744,183.762863 75.158669,183.877701 73.500450,183.229691 
	C68.198372,181.157639 63.097301,178.571228 56.746883,175.643112 
	C62.788971,171.822205 67.819366,168.641083 73.173828,165.295013 
z"/>
<path fill="#206887" opacity="1.000000" stroke="none" 
	d="
M345.030090,444.133240 
	C348.194977,442.065002 351.106232,440.269470 354.639954,438.089996 
	C355.751495,444.043396 356.809296,449.303589 357.652985,454.597931 
	C357.806671,455.562439 357.415192,457.176636 356.717896,457.626221 
	C350.272675,461.781586 343.704987,465.746979 336.661591,470.082336 
	C335.538849,463.836029 334.448059,458.381805 333.675140,452.882874 
	C333.541107,451.929382 334.491821,450.388062 335.388214,449.804565 
	C338.408966,447.838135 341.631226,446.181213 345.030090,444.133240 
z"/>
<path fill="#206887" opacity="1.000000" stroke="none" 
	d="
M288.594788,55.075855 
	C291.775177,58.635963 294.623016,62.030682 297.797791,65.815155 
	C290.685791,70.358749 283.957275,74.657333 276.472046,79.439362 
	C273.354065,75.698860 270.289398,72.022316 266.637299,67.641083 
	C274.253662,63.157307 281.257935,59.033886 288.594788,55.075855 
z"/>
<path fill="#B3BDC6" opacity="1.000000" stroke="none" 
	d="
M124.755295,77.959503 
	C128.643799,70.446495 132.188431,63.198082 136.062592,56.130302 
	C137.156036,54.135494 139.214188,52.669495 140.829880,50.960957 
	C141.223679,51.268959 141.617477,51.576962 142.011292,51.884964 
	C140.724167,54.207756 139.329575,56.478153 138.167648,58.861973 
	C131.435120,72.674469 128.109619,87.204445 128.828659,102.636871 
	C129.063187,107.670387 125.824089,110.547386 120.226570,110.477890 
	C119.637985,99.474380 121.848061,88.854530 124.755295,77.959503 
z"/>
<path fill="#236A89" opacity="1.000000" stroke="none" 
	d="
M411.068939,336.168274 
	C414.037659,334.443604 416.671082,332.853882 420.021973,330.831024 
	C421.239227,335.439362 422.464600,339.304321 423.158417,343.262421 
	C423.326904,344.223572 421.985596,345.852509 420.927490,346.557800 
	C415.509644,350.169128 409.957428,353.578857 404.428894,357.073761 
	C399.307220,347.193939 400.726349,342.714081 411.068939,336.168274 
z"/>
<path fill="#236A89" opacity="1.000000" stroke="none" 
	d="
M200.347458,190.148773 
	C207.061661,188.019119 212.814301,191.179413 213.868225,197.529922 
	C214.057739,198.671844 212.960953,200.466644 211.924713,201.283127 
	C209.617462,203.101028 206.972748,204.490662 204.465652,206.054962 
	C201.970901,207.611588 199.476227,209.168320 196.388321,211.095169 
	C194.330063,207.144699 192.164474,203.338989 190.422119,199.348495 
	C190.073105,198.549179 191.024612,196.660797 191.915115,195.940399 
	C194.460480,193.881302 197.283005,192.164795 200.347458,190.148773 
z"/>
<path fill="#2B708E" opacity="1.000000" stroke="none" 
	d="
M165.301178,195.251205 
	C163.377182,195.546188 161.207397,196.411469 160.277481,195.686432 
	C153.529221,190.425079 147.031052,184.842987 140.143219,179.103592 
	C142.396240,177.545074 144.885406,175.823196 147.690903,173.882507 
	C151.038040,177.908966 154.441589,181.688721 157.468628,185.749130 
	C159.691742,188.731155 161.645950,189.927994 165.308517,187.699966 
	C169.223770,185.318192 173.550995,183.571777 177.815781,181.836548 
	C178.851715,181.415024 180.347916,182.124725 181.632492,182.314270 
	C181.141342,183.532120 181.002213,185.264984 180.100098,185.881546 
	C175.383179,189.105484 170.472610,192.046112 165.301178,195.251205 
z"/>
<path fill="#2B708E" opacity="1.000000" stroke="none" 
	d="
M403.338776,335.382019 
	C396.025116,341.569183 388.924194,336.271729 381.488434,336.242981 
	C390.660309,324.903320 403.816559,321.342133 417.081268,326.457031 
	C412.493835,329.443573 408.076843,332.319183 403.338776,335.382019 
z"/>
<path fill="#236A89" opacity="1.000000" stroke="none" 
	d="
M361.918243,271.095825 
	C360.363953,269.423279 359.077667,267.985596 357.310760,266.010712 
	C362.658478,262.648956 367.463867,259.628113 373.178162,256.035950 
	C376.383423,259.890686 379.604431,263.764374 383.087738,267.953491 
	C378.750885,270.758514 374.274841,273.787720 369.624329,276.519897 
	C368.909088,276.940094 367.153900,276.292694 366.295868,275.613342 
	C364.759094,274.396606 363.538818,272.780090 361.918243,271.095825 
z"/>
<path fill="#236A89" opacity="1.000000" stroke="none" 
	d="
M136.460236,320.178894 
	C135.097626,321.011078 134.023361,321.651642 131.963058,322.880188 
	C133.585083,315.910217 134.958954,310.006653 136.267365,304.384338 
	C142.540924,302.099640 148.534348,299.916992 155.364059,297.429779 
	C153.508392,303.272461 154.840347,309.660248 148.187546,313.017090 
	C144.213913,315.022125 140.551117,317.643158 136.460236,320.178894 
z"/>
<path fill="#AEBAC3" opacity="1.000000" stroke="none" 
	d="
M45.054893,178.083847 
	C44.440559,180.363480 44.259598,182.512772 43.191887,184.043549 
	C39.718590,189.023117 41.569416,194.343201 42.078220,199.432602 
	C42.673180,205.383865 40.326130,208.788559 34.894440,210.515518 
	C30.802841,197.561707 40.008732,168.409927 51.843056,158.276627 
	C49.503609,164.987381 47.292915,171.328827 45.054893,178.083847 
z"/>
<path fill="#236A89" opacity="1.000000" stroke="none" 
	d="
M160.884125,85.412048 
	C154.945618,84.822289 149.258774,83.928856 143.571945,83.035423 
	C143.427567,82.654785 143.283203,82.274147 143.138824,81.893501 
	C146.596573,79.666695 150.272614,77.712158 153.464066,75.153221 
	C159.133194,70.607643 165.035294,68.375771 172.284988,71.995842 
	C168.663818,76.254700 164.899811,80.681534 160.884125,85.412048 
z"/>
<path fill="#2B708E" opacity="1.000000" stroke="none" 
	d="
M314.704651,144.028259 
	C313.649689,149.980408 311.775085,154.562347 305.839905,157.091202 
	C301.242249,159.050156 297.266479,162.468658 292.713776,165.434082 
	C292.492584,157.487808 295.507629,152.355820 302.177551,149.155350 
	C305.859253,147.388763 309.154358,144.826950 312.712402,142.777481 
	C313.106964,142.550201 314.084137,143.334412 314.704651,144.028259 
z"/>
<path fill="#2B708E" opacity="1.000000" stroke="none" 
	d="
M124.405327,149.143585 
	C121.638786,148.738739 119.267189,148.356522 116.895584,147.974289 
	C116.816719,147.594986 116.737854,147.215683 116.658989,146.836380 
	C122.717361,143.058640 128.484695,138.615250 134.957413,135.785172 
	C138.172928,134.379242 142.683441,135.935104 146.864227,136.769119 
	C139.458466,140.921814 134.334961,148.822052 124.405327,149.143585 
z"/>
<path fill="#307390" opacity="1.000000" stroke="none" 
	d="
M373.106995,280.187469 
	C377.380585,277.558838 381.322052,275.065826 385.779999,272.246185 
	C384.940033,280.423370 380.419189,284.829376 363.315308,294.546204 
	C366.065002,288.569946 367.658997,283.377899 373.106995,280.187469 
z"/>
<path fill="#2B708E" opacity="1.000000" stroke="none" 
	d="
M272.155609,93.398956 
	C276.871704,84.312279 284.413849,79.285522 293.670593,75.331688 
	C290.530212,86.118523 282.493530,90.990723 274.012421,95.350319 
	C273.702759,95.509491 272.698486,94.317390 272.155609,93.398956 
z"/>
<path fill="#2B708E" opacity="1.000000" stroke="none" 
	d="
M287.155640,230.936905 
	C285.858063,230.576248 284.952332,230.258575 283.941559,229.904068 
	C291.376648,222.270966 298.783569,220.569702 306.744446,224.813568 
	C300.793549,228.813782 295.494934,233.806808 287.155640,230.936905 
z"/>
<path fill="#B3BDC6" opacity="1.000000" stroke="none" 
	d="
M149.907593,32.104443 
	C155.060074,28.839411 155.272446,28.938538 156.160370,34.508804 
	C156.290573,35.325558 156.591110,36.114918 156.725067,36.931351 
	C158.022675,44.840523 157.583832,45.656311 149.340042,49.893166 
	C148.946915,43.824062 145.809769,38.163071 149.907593,32.104443 
z"/>
<path fill="#367793" opacity="1.000000" stroke="none" 
	d="
M195.082916,185.763123 
	C192.489853,188.353622 189.922729,191.622101 186.583817,192.950180 
	C181.743774,194.875305 176.345886,195.397888 171.185944,196.518723 
	C171.019501,196.021805 170.853058,195.524902 170.686615,195.027985 
	C176.060516,191.810928 181.269073,188.248901 186.892944,185.553375 
	C189.023788,184.532043 192.112045,185.508209 195.082916,185.763123 
z"/>
<path fill="#307390" opacity="1.000000" stroke="none" 
	d="
M191.987488,307.790436 
	C188.304367,307.220001 185.047211,306.723755 180.180115,305.982239 
	C187.779114,301.885437 194.141846,298.455139 201.381546,294.552032 
	C199.958939,298.799408 199.208939,302.366364 197.534042,305.427216 
	C196.798599,306.771271 194.178055,307.083740 191.987488,307.790436 
z"/>
<path fill="#367793" opacity="1.000000" stroke="none" 
	d="
M391.764954,427.718384 
	C397.757446,422.989899 403.614288,418.599976 409.471161,414.210083 
	C409.779358,414.599792 410.087555,414.989502 410.395752,415.379211 
	C407.247040,425.548004 397.371307,427.976654 389.873108,433.140900 
	C389.549835,432.872437 389.226562,432.603973 388.903320,432.335510 
	C389.811951,430.909332 390.720612,429.483154 391.764954,427.718384 
z"/>
<path fill="#367793" opacity="1.000000" stroke="none" 
	d="
M204.881439,28.834911 
	C208.461060,27.621193 211.706299,26.584450 215.931213,25.234735 
	C210.503555,32.148846 199.040649,38.018147 190.372803,38.420982 
	C195.593094,34.955669 200.070084,31.983780 204.881439,28.834911 
z"/>
<path fill="#B3BDC6" opacity="1.000000" stroke="none" 
	d="
M142.154236,20.665821 
	C145.224487,21.989799 147.926453,23.164965 150.697479,24.370169 
	C145.194733,31.128586 139.854538,31.022261 132.102448,24.042158 
	C134.520523,20.567448 137.570129,19.061586 142.154236,20.665821 
z"/>
<path fill="#307390" opacity="1.000000" stroke="none" 
	d="
M209.975296,283.003235 
	C204.874420,287.290588 199.900436,291.243744 194.926437,295.196869 
	C194.571762,294.782867 194.217087,294.368896 193.862411,293.954926 
	C195.797821,284.146698 206.080811,283.247131 211.704391,277.374969 
	C212.166672,277.767639 212.628952,278.160309 213.091232,278.552979 
	C212.094879,279.924988 211.098541,281.296967 209.975296,283.003235 
z"/>
<path fill="#367793" opacity="1.000000" stroke="none" 
	d="
M254.976944,251.984406 
	C258.595154,250.371460 262.237549,248.770935 265.883240,247.178024 
	C267.513916,246.465530 269.151215,245.768280 270.837311,245.041794 
	C272.324188,252.436691 271.625732,253.324646 264.745148,253.918427 
	C261.302948,254.215515 257.885681,254.800919 253.805450,255.342422 
	C254.484467,254.064835 254.839218,253.397354 255.091446,252.335770 
	C254.988922,251.941650 255.002441,251.999908 254.976944,251.984406 
z"/>
<path fill="#B3BDC6" opacity="1.000000" stroke="none" 
	d="
M89.609314,115.658165 
	C94.147530,124.569328 94.147530,124.569328 85.355591,128.884995 
	C79.672501,122.218445 80.596977,119.099747 89.609314,115.658165 
z"/>
<path fill="#B3BDC6" opacity="1.000000" stroke="none" 
	d="
M416.545532,464.669312 
	C418.879272,462.590088 420.741730,463.254333 421.447693,465.480316 
	C421.774445,466.510681 420.529602,468.236328 419.649506,469.378906 
	C419.119934,470.066345 417.935608,470.530121 417.019531,470.576141 
	C415.484619,470.653290 413.928864,470.316254 412.381897,470.153534 
	C412.988251,468.855896 413.476807,467.481873 414.248535,466.291443 
	C414.661346,465.654633 415.562195,465.334137 416.545532,464.669312 
z"/>
<path fill="#B7CFD9" opacity="1.000000" stroke="none" 
	d="
M427.183044,445.971954 
	C427.766968,445.909851 428.068665,445.959961 428.820679,446.108765 
	C426.393494,450.058136 423.515900,453.908875 420.319153,457.879791 
	C420.000000,458.000000 419.997559,457.997559 419.997559,457.997559 
	C422.298676,454.026459 424.599762,450.055328 427.183044,445.971954 
z"/>
<path fill="#1D6686" opacity="1.000000" stroke="none" 
	d="
M266.170593,456.384888 
	C268.457123,453.084167 270.915161,452.152618 274.968140,455.313202 
	C271.660248,457.265961 268.815765,458.945129 265.971283,460.624329 
	C265.662231,460.287689 265.353180,459.951050 265.044098,459.614410 
	C265.357361,458.649048 265.670654,457.683685 266.170593,456.384888 
z"/>
<path fill="#B7CFD9" opacity="1.000000" stroke="none" 
	d="
M420.001099,458.001221 
	C419.687927,458.498688 419.373657,458.994965 419.059387,459.491211 
	C418.856628,459.299408 418.653870,459.107605 418.451080,458.915833 
	C418.774597,458.615112 419.098114,458.314423 419.709595,458.005615 
	C419.997559,457.997559 420.000000,458.000000 420.001099,458.001221 
z"/>
<path fill="#307390" opacity="1.000000" stroke="none" 
	d="
M387.584229,271.809662 
	C387.570129,271.774902 387.598358,271.844391 387.584229,271.809662 
z"/>
<path fill="#367793" opacity="1.000000" stroke="none" 
	d="
M252.520294,255.504791 
	C252.531693,255.520523 252.508881,255.489059 252.520294,255.504791 
z"/>
<path fill="#CDDDE4" opacity="1.000000" stroke="none" 
	d="
M250.143280,333.734741 
	C253.257172,342.642090 257.822174,350.860229 258.372375,360.119019 
	C257.823456,360.345520 257.274536,360.571991 256.725616,360.798492 
	C255.946411,359.691650 254.783569,358.687073 254.456406,357.459747 
	C253.234512,352.875793 249.324280,352.698120 245.864868,352.366028 
	C244.774063,352.261322 243.520203,354.457428 242.244949,355.480835 
	C241.226013,356.298615 240.061447,356.934937 238.961502,357.651794 
	C238.756607,356.420776 238.074310,355.029175 238.425385,353.985107 
	C240.486206,347.856415 242.918472,341.851898 244.951019,335.714600 
	C245.888458,332.884064 247.441956,332.528107 250.143280,333.734741 
M248.958832,340.035156 
	C248.863358,339.898865 248.790543,339.732910 248.664536,339.636566 
	C248.578384,339.570740 248.320618,339.559479 248.304703,339.595917 
	C247.066376,342.432739 245.844452,345.276703 244.309875,348.843933 
	C247.663040,349.023712 249.562805,349.125610 252.100937,349.261688 
	C250.958359,345.955231 250.053528,343.336700 248.958832,340.035156 
z"/>
<path fill="#C2D6DE" opacity="1.000000" stroke="none" 
	d="
M274.414154,364.336792 
	C272.813995,360.496490 271.213837,356.656158 269.943726,352.334106 
	C270.128387,351.563934 269.983063,351.275513 269.837708,350.987061 
	C269.770203,350.536530 269.702728,350.085999 269.979553,349.238495 
	C270.184662,348.558136 270.045441,348.274750 269.906250,347.991364 
	C270.386444,338.651581 279.686615,333.415649 288.643066,337.631714 
	C290.971893,338.727936 292.926453,340.619232 294.771454,342.679504 
	C294.192780,343.361694 293.895538,343.509705 293.334900,343.674316 
	C290.955383,342.408081 288.839264,341.125305 286.116119,339.474548 
	C286.116119,344.757660 286.116119,348.862671 286.057800,353.345703 
	C286.039276,354.485199 286.079071,355.246643 286.043121,356.463867 
	C285.967377,360.189362 285.967377,363.459076 285.967377,367.188019 
	C288.324036,366.796906 290.085083,366.504608 292.268799,366.563232 
	C292.966370,367.156189 293.241241,367.398254 293.516083,367.640320 
	C293.516083,367.640320 293.455566,367.905548 292.988068,367.960938 
	C291.673187,368.539642 290.825806,369.062988 289.978394,369.586334 
	C287.934326,369.651184 285.890259,369.716003 283.331604,369.319275 
	C281.847198,368.593323 280.877380,368.328979 279.907562,368.064636 
	C279.907562,368.064636 279.993652,368.008881 280.059998,367.582062 
	C280.198486,366.845520 280.270691,366.535767 280.701233,366.334381 
	C281.694611,365.407898 282.843597,364.388489 282.875336,363.335480 
	C283.009552,358.881409 282.811340,354.417358 282.796143,349.514771 
	C282.813843,346.398499 282.770111,343.724396 282.768921,340.713776 
	C281.550323,340.280548 280.289185,340.183777 278.685364,340.132996 
	C274.681091,342.413147 272.172852,345.244598 273.211700,350.252625 
	C271.883698,355.154816 273.197510,359.113159 275.948334,363.014954 
	C275.296844,363.691528 274.855499,364.014160 274.414154,364.336792 
z"/>
<path fill="#E7EFF2" opacity="1.000000" stroke="none" 
	d="
M329.644531,351.065918 
	C329.404938,352.528351 329.165344,353.990753 328.413696,355.917908 
	C327.203949,357.629547 326.506226,358.876465 325.466370,359.999451 
	C322.671112,359.199005 320.218048,358.522552 317.764954,357.846100 
	C317.328918,358.189087 316.892853,358.532074 316.456818,358.875061 
	C317.255524,361.459595 317.357971,365.444611 319.028656,366.275208 
	C321.131348,367.320587 325.124664,369.054413 327.624481,364.970886 
	C328.749420,363.764740 329.540222,362.645111 330.331024,361.525482 
	C330.331024,361.525482 330.347778,361.612732 330.244202,362.098206 
	C330.093872,364.389282 330.047089,366.194916 330.000336,368.000519 
	C330.000336,368.000519 330.000000,368.000000 329.626282,368.036682 
	C327.177582,368.677246 325.102570,369.281128 323.027588,369.885010 
	C321.967285,369.855621 320.906952,369.826233 319.349365,369.389526 
	C317.289062,368.641571 315.726105,368.300873 314.163147,367.960205 
	C314.163147,359.922394 314.163147,351.884613 314.163147,343.081940 
	C318.081604,343.807800 321.843994,344.504791 325.827209,345.895203 
	C325.970337,347.448395 325.892609,348.308136 325.484680,349.070618 
	C322.784332,348.133148 320.414154,347.292969 317.269928,346.178375 
	C317.977234,349.978607 314.490204,353.794006 320.032227,355.712219 
	C321.776978,355.761627 323.413239,355.485626 325.288086,354.897644 
	C325.602753,352.765198 325.678802,350.944763 326.085205,349.106567 
	C327.491882,349.747833 328.568207,350.406860 329.644531,351.065918 
z"/>
<path fill="#DDE8ED" opacity="1.000000" stroke="none" 
	d="
M296.057648,343.991943 
	C302.333221,352.625610 301.640625,361.361877 293.855713,367.561157 
	C293.241241,367.398254 292.966370,367.156189 292.524414,366.311768 
	C293.757599,362.816284 295.157837,359.923187 296.562805,356.715027 
	C296.563843,355.256287 296.560120,354.112579 296.628632,352.594116 
	C295.690613,349.364075 294.680359,346.508850 294.265717,343.747314 
	C295.260071,343.891327 295.658875,343.941650 296.057648,343.991943 
z"/>
<path fill="#C2D6DE" opacity="1.000000" stroke="none" 
	d="
M330.283203,361.165588 
	C329.540222,362.645111 328.749420,363.764740 327.595825,364.589844 
	C326.758179,362.904663 326.283356,361.514038 325.808533,360.123413 
	C326.506226,358.876465 327.203949,357.629547 328.159302,356.205658 
	C329.023071,357.621063 329.629242,359.213379 330.283203,361.165588 
z"/>
<path fill="#B7CFD9" opacity="1.000000" stroke="none" 
	d="
M274.589050,364.634399 
	C274.855499,364.014160 275.296844,363.691528 276.209839,363.204712 
	C277.901947,364.102356 279.122406,365.164185 280.342865,366.226013 
	C280.270691,366.535767 280.198486,366.845520 280.028168,367.622314 
	C278.208008,367.036896 276.485992,365.984436 274.589050,364.634399 
z"/>
<path fill="#C2D6DE" opacity="1.000000" stroke="none" 
	d="
M323.309784,370.097198 
	C325.102570,369.281128 327.177582,368.677246 329.626526,368.036835 
	C327.864319,368.770020 325.728149,369.539703 323.309784,370.097198 
z"/>
<path fill="#C2D6DE" opacity="1.000000" stroke="none" 
	d="
M330.312439,367.873047 
	C330.047089,366.194916 330.093872,364.389282 330.257629,362.140533 
	C330.457916,363.713440 330.541229,365.729492 330.312439,367.873047 
z"/>
<path fill="#C2D6DE" opacity="1.000000" stroke="none" 
	d="
M329.694946,350.728760 
	C328.568207,350.406860 327.491882,349.747833 326.158203,349.047394 
	C325.900848,349.005981 325.814850,349.167847 325.814850,349.167847 
	C325.892609,348.308136 325.970337,347.448395 326.100739,346.159058 
	C327.350739,347.283447 328.548065,348.837524 329.694946,350.728760 
z"/>
<path fill="#C2D6DE" opacity="1.000000" stroke="none" 
	d="
M314.230042,368.305237 
	C315.726105,368.300873 317.289062,368.641571 318.958557,369.314148 
	C317.475677,369.314117 315.886322,368.982208 314.230042,368.305237 
z"/>
<path fill="#B7CFD9" opacity="1.000000" stroke="none" 
	d="
M280.030731,368.360229 
	C280.877380,368.328979 281.847198,368.593323 282.920898,369.153259 
	C282.067841,369.184509 281.110870,368.920166 280.030731,368.360229 
z"/>
<path fill="#B7CFD9" opacity="1.000000" stroke="none" 
	d="
M290.304810,369.638397 
	C290.825806,369.062988 291.673187,368.539642 292.867554,368.023987 
	C292.353424,368.584625 291.492340,369.137543 290.304810,369.638397 
z"/>
<path fill="#B7CFD9" opacity="1.000000" stroke="none" 
	d="
M269.812378,351.244934 
	C269.983063,351.275513 270.128387,351.563934 270.069153,351.933807 
	C269.838715,351.844421 269.812866,351.673645 269.812378,351.244934 
z"/>
<path fill="#B7CFD9" opacity="1.000000" stroke="none" 
	d="
M269.880493,348.246643 
	C270.045441,348.274750 270.184662,348.558136 270.131165,348.924866 
	C269.910553,348.839478 269.882660,348.670715 269.880493,348.246643 
z"/>
<path fill="#C2D6DE" opacity="1.000000" stroke="none" 
	d="
M296.059052,343.735474 
	C295.658875,343.941650 295.260071,343.891327 294.254883,343.734863 
	C293.648438,343.628754 293.598328,343.657745 293.598328,343.657745 
	C293.895538,343.509705 294.192780,343.361694 294.932953,342.983765 
	C295.604095,342.995544 295.832275,343.237274 296.059052,343.735474 
z"/>
<path fill="#DDE8ED" opacity="1.000000" stroke="none" 
	d="
M141.266571,251.882370 
	C136.040115,251.915482 134.042389,249.834061 134.512085,244.822510 
	C134.956528,240.080414 134.607574,235.263962 134.607574,230.057602 
	C141.111572,229.975601 147.582108,229.645477 150.604355,235.526016 
	C152.424896,239.068329 152.454041,244.299255 151.456635,248.316650 
	C150.348312,252.780685 145.601334,252.318314 141.266571,251.882370 
M147.393158,238.562469 
	C145.746918,235.496857 143.330887,234.044098 139.207397,234.868301 
	C139.207397,238.327011 139.009018,241.749832 139.330948,245.123001 
	C139.424835,246.106659 140.878021,247.531311 141.922073,247.754929 
	C146.473724,248.729752 148.477173,245.698517 147.393158,238.562469 
z"/>
<path fill="#B7CFD9" opacity="1.000000" stroke="none" 
	d="
M89.110794,239.740005 
	C94.053993,244.336807 96.672684,240.536453 99.271057,237.239716 
	C102.141403,240.161392 101.070580,243.689987 97.204254,244.923050 
	C92.585655,246.396042 87.249664,244.056808 84.500092,239.353699 
	C81.967468,235.021683 82.590637,227.084122 85.676239,224.372360 
	C89.829659,220.722153 97.011131,222.680649 99.141960,227.956940 
	C99.497986,228.838531 100.445534,229.481232 100.740379,230.896698 
	C99.325325,230.006989 97.989777,228.935745 96.475510,228.272598 
	C94.493233,227.404541 91.746162,225.735397 90.459702,226.449493 
	C88.722328,227.413879 87.353119,230.244949 87.132919,232.408096 
	C86.902702,234.669678 88.221634,237.088959 89.110794,239.740005 
z"/>
<path fill="#CDDDE4" opacity="1.000000" stroke="none" 
	d="
M116.298767,240.266724 
	C115.419960,242.300293 114.892906,244.102982 113.903931,245.600647 
	C113.344757,246.447449 112.026505,246.792999 111.050163,247.364319 
	C110.761429,246.377914 109.971802,245.197540 110.266335,244.437027 
	C112.003998,239.950150 113.771065,235.445694 115.977821,231.179718 
	C117.427620,228.377075 120.053093,228.484039 121.251572,231.285385 
	C123.327431,236.137543 124.838226,241.241608 126.367950,246.305893 
	C126.588226,247.035110 125.595451,248.130753 125.164040,249.056824 
	C124.358589,248.398315 123.132538,247.895798 122.820457,247.054306 
	C121.463364,243.395142 120.372459,239.637238 117.890533,235.783386 
	C117.412750,237.158325 116.934967,238.533249 116.298767,240.266724 
z"/>
<path fill="#E7EFF2" opacity="1.000000" stroke="none" 
	d="
M207.896271,136.750549 
	C211.862625,132.900299 215.867905,136.212250 219.689255,136.663666 
	C221.483902,136.875702 224.372269,140.429413 224.200012,142.222321 
	C223.762177,146.779312 224.832809,150.594284 226.373566,154.748428 
	C227.773911,158.524048 224.184174,162.219284 219.853638,162.050827 
	C216.560013,161.922699 213.218277,161.534393 210.045181,160.701157 
	C209.069687,160.444977 208.004044,158.356720 207.964401,157.076889 
	C207.759033,150.446518 207.872635,143.806274 207.896271,136.750549 
M218.467529,150.973572 
	C216.761658,151.273865 215.055801,151.574142 213.349930,151.874420 
	C213.670731,153.410904 213.579773,155.931610 214.399857,156.274689 
	C216.003357,156.945557 218.115555,156.400543 220.017181,156.358887 
	C219.735626,154.667618 219.454071,152.976349 218.467529,150.973572 
M219.407333,144.436111 
	C218.826050,143.325195 218.500839,141.857468 217.590927,141.204498 
	C216.694687,140.561340 215.162140,140.496078 214.001389,140.701233 
	C213.605972,140.771103 213.052490,142.621399 213.353409,143.322479 
	C213.792053,144.344498 214.808792,145.467499 215.820496,145.789948 
	C216.716553,146.075531 217.942245,145.326828 219.407333,144.436111 
z"/>
<path fill="#CDDDE4" opacity="1.000000" stroke="none" 
	d="
M222.804901,105.186333 
	C223.452682,107.617317 224.004913,109.657761 224.557144,111.698196 
	C224.921783,111.810844 225.286407,111.923492 225.651047,112.036133 
	C227.206879,108.385323 228.545364,104.617332 230.420670,101.138741 
	C231.221924,99.652451 233.142685,98.769684 234.554749,97.612671 
	C234.560501,99.512161 235.084702,101.601967 234.470932,103.274048 
	C232.882462,107.601547 230.936539,111.819603 228.814987,115.916512 
	C228.173645,117.154984 226.462021,118.633545 225.292023,118.590965 
	C224.001083,118.543991 222.075729,117.123039 221.627426,115.870728 
	C219.240906,109.204277 217.230804,102.403084 215.043549,95.500671 
	C218.277390,94.030144 219.868713,95.019928 220.611130,98.152641 
	C221.145203,100.406204 221.998459,102.584122 222.804901,105.186333 
z"/>
<path fill="#CDDDE4" opacity="1.000000" stroke="none" 
	d="
M189.190552,107.430420 
	C189.196182,101.820312 189.139313,96.661362 189.329422,91.511536 
	C189.370529,90.398376 190.433487,88.324127 190.800552,88.373314 
	C195.476151,88.999748 200.113113,89.920616 204.744186,90.845299 
	C204.889771,90.874367 204.866730,91.747963 205.024033,93.106102 
	C201.146652,92.714203 197.509659,92.346603 193.446472,91.935936 
	C193.446472,94.343178 193.446472,96.546043 193.446472,98.544975 
	C196.326874,101.438766 202.007996,98.689857 204.636246,104.350090 
	C200.236816,103.999794 197.018097,103.743507 193.882217,103.493820 
	C192.098160,110.639908 192.843460,111.545029 199.156799,111.769005 
	C201.060013,111.836525 202.923019,113.037720 204.804443,113.719597 
	C204.679092,114.325623 204.553726,114.931648 204.428375,115.537674 
	C199.783997,114.850319 195.069351,114.429596 190.557068,113.240837 
	C189.699417,113.014877 189.642761,109.748436 189.190552,107.430420 
z"/>
<path fill="#DDE8ED" opacity="1.000000" stroke="none" 
	d="
M197.134842,134.090134 
	C200.867249,132.141342 202.304779,133.545441 202.093979,137.127716 
	C201.826874,141.666840 201.481461,146.201370 200.083359,150.735229 
	C196.798538,145.552017 196.351196,140.083954 197.134842,134.090134 
z"/>
<path fill="#C2D6DE" opacity="1.000000" stroke="none" 
	d="
M200.524170,152.463669 
	C201.277786,154.517090 201.761993,156.458649 201.951035,158.428543 
	C201.967789,158.603241 199.667099,159.511169 199.128540,159.124161 
	C197.929169,158.262344 196.142166,156.358017 196.437714,155.668198 
	C197.030212,154.285294 198.857803,153.431580 200.524170,152.463669 
z"/>
<path fill="#367793" opacity="1.000000" stroke="none" 
	d="
M249.053772,340.376678 
	C250.053528,343.336700 250.958359,345.955231 252.100937,349.261688 
	C249.562805,349.125610 247.663040,349.023712 244.309875,348.843933 
	C245.844452,345.276703 247.066376,342.432739 248.304703,339.595917 
	C248.320618,339.559479 248.578384,339.570740 248.664536,339.636566 
	C248.790543,339.732910 248.863358,339.898865 249.053772,340.376678 
z"/>
<path fill="#367793" opacity="1.000000" stroke="none" 
	d="
M280.701233,366.334381 
	C279.122406,365.164185 277.901947,364.102356 276.419983,362.850769 
	C273.197510,359.113159 271.883698,355.154816 273.637329,350.251984 
	C277.000519,349.951263 279.867584,349.954102 282.734680,349.956940 
	C282.811340,354.417358 283.009552,358.881409 282.875336,363.335480 
	C282.843597,364.388489 281.694611,365.407898 280.701233,366.334381 
z"/>
<path fill="#236A89" opacity="1.000000" stroke="none" 
	d="
M293.334900,343.674316 
	C293.598328,343.657745 293.648438,343.628754 293.659302,343.641174 
	C294.680359,346.508850 295.690613,349.364075 296.246277,352.594971 
	C292.566467,352.969635 289.341309,352.968658 286.116119,352.967682 
	C286.116119,348.862671 286.116119,344.757660 286.116119,339.474548 
	C288.839264,341.125305 290.955383,342.408081 293.334900,343.674316 
z"/>
<path fill="#236A89" opacity="1.000000" stroke="none" 
	d="
M296.558044,357.030121 
	C295.157837,359.923187 293.757599,362.816284 292.101746,365.960846 
	C290.085083,366.504608 288.324036,366.796906 285.967377,367.188019 
	C285.967377,363.459076 285.967377,360.189362 286.460876,356.459839 
	C290.155579,356.343414 293.356812,356.686768 296.558044,357.030121 
z"/>
<path fill="#1D6686" opacity="1.000000" stroke="none" 
	d="
M282.796143,349.514771 
	C279.867584,349.954102 277.000519,349.951263 273.707764,349.949036 
	C272.172852,345.244598 274.681091,342.413147 278.902649,340.380737 
	C280.550598,340.738403 281.638489,340.894348 282.726379,341.050262 
	C282.770111,343.724396 282.813843,346.398499 282.796143,349.514771 
z"/>
<path fill="#2B708E" opacity="1.000000" stroke="none" 
	d="
M296.562805,356.715027 
	C293.356812,356.686768 290.155579,356.343414 286.536621,356.004089 
	C286.079071,355.246643 286.039276,354.485199 286.057800,353.345703 
	C289.341309,352.968658 292.566467,352.969635 296.174011,352.969727 
	C296.560120,354.112579 296.563843,355.256287 296.562805,356.715027 
z"/>
<path fill="#367793" opacity="1.000000" stroke="none" 
	d="
M282.768921,340.713776 
	C281.638489,340.894348 280.550598,340.738403 279.245392,340.334747 
	C280.289185,340.183777 281.550323,340.280548 282.768921,340.713776 
z"/>
<path fill="#307390" opacity="1.000000" stroke="none" 
	d="
M325.466370,359.999451 
	C326.283356,361.514038 326.758179,362.904663 327.261688,364.676392 
	C325.124664,369.054413 321.131348,367.320587 319.028656,366.275208 
	C317.357971,365.444611 317.255524,361.459595 316.456818,358.875061 
	C316.892853,358.532074 317.328918,358.189087 317.764954,357.846100 
	C320.218048,358.522552 322.671112,359.199005 325.466370,359.999451 
z"/>
<path fill="#2B708E" opacity="1.000000" stroke="none" 
	d="
M319.923706,355.386749 
	C314.490204,353.794006 317.977234,349.978607 317.269928,346.178375 
	C320.414154,347.292969 322.784332,348.133148 325.484680,349.070618 
	C325.814850,349.167847 325.900848,349.005981 325.827850,349.065155 
	C325.678802,350.944763 325.602753,352.765198 324.859497,354.887512 
	C322.769440,355.255188 321.346588,355.320953 319.923706,355.386749 
z"/>
<path fill="#C2D6DE" opacity="1.000000" stroke="none" 
	d="
M320.032227,355.712219 
	C321.346588,355.320953 322.769440,355.255188 324.620911,355.199524 
	C323.413239,355.485626 321.776978,355.761627 320.032227,355.712219 
z"/>
<path fill="#307390" opacity="1.000000" stroke="none" 
	d="
M147.570557,238.919174 
	C148.477173,245.698517 146.473724,248.729752 141.922073,247.754929 
	C140.878021,247.531311 139.424835,246.106659 139.330948,245.123001 
	C139.009018,241.749832 139.207397,238.327011 139.207397,234.868301 
	C143.330887,234.044098 145.746918,235.496857 147.570557,238.919174 
z"/>
<path fill="#367793" opacity="1.000000" stroke="none" 
	d="
M218.820038,151.129333 
	C219.454071,152.976349 219.735626,154.667618 220.017181,156.358887 
	C218.115555,156.400543 216.003357,156.945557 214.399857,156.274689 
	C213.579773,155.931610 213.670731,153.410904 213.349930,151.874420 
	C215.055801,151.574142 216.761658,151.273865 218.820038,151.129333 
z"/>
<path fill="#367793" opacity="1.000000" stroke="none" 
	d="
M219.214874,144.735413 
	C217.942245,145.326828 216.716553,146.075531 215.820496,145.789948 
	C214.808792,145.467499 213.792053,144.344498 213.353409,143.322479 
	C213.052490,142.621399 213.605972,140.771103 214.001389,140.701233 
	C215.162140,140.496078 216.694687,140.561340 217.590927,141.204498 
	C218.500839,141.857468 218.826050,143.325195 219.214874,144.735413 
z"/>
</svg>